<svg id="Layer_1" data-name="Layer 1" xmlns="http://www.w3.org/2000/svg" viewBox="0 0 3000 3000"><defs><style>.cls-1{opacity:0.4;}.cls-2{fill:#fff;}.cls-3{fill:#dbdfe3;}.cls-4{fill:#edeff1;}</style></defs><title>background</title><g class="cls-1"><path class="cls-2" d="M833.54,1158.71a3,3,0,0,0-2.15,3.73l6.71,25a126.59,126.59,0,0,0-32.82,19l-18.34-18.34a3.05,3.05,0,0,0-3-.77,3.14,3.14,0,0,0-1.28.77L767,1203.76a3,3,0,0,0,0,4.3l18.39,18.39a126.49,126.49,0,0,0-18.93,32.79l-25.12-6.73a2.73,2.73,0,0,0-1.5,0,3,3,0,0,0-2.23,2.18l-5.73,21.38a3,3,0,0,0,2.16,3.73l25.12,6.73a127.11,127.11,0,0,0,0,37.86L734,1331.1a3,3,0,0,0-2.16,3.73l5.73,21.38a3,3,0,0,0,3.73,2.16l25-6.71a126.92,126.92,0,0,0,19,32.82L767,1402.81a3,3,0,0,0,0,4.31l15.66,15.65a3,3,0,0,0,4.3,0l18.39-18.39a126.49,126.49,0,0,0,32.79,18.93l-6.73,25.12a3,3,0,0,0,2.15,3.73l21.38,5.73a3,3,0,0,0,3.73-2.15l6.73-25.13a126.45,126.45,0,0,0,37.86,0l6.73,25.13a3,3,0,0,0,3.73,2.15l21.38-5.73a3,3,0,0,0,2.16-3.73l-6.71-25a127,127,0,0,0,32.82-19l18.33,18.33a3,3,0,0,0,4.31,0l15.65-15.65a3,3,0,0,0,0-4.31l-18.39-18.39a126.49,126.49,0,0,0,18.93-32.79l25.12,6.74a3,3,0,0,0,3.73-2.16l5.73-21.38a3,3,0,0,0-2.15-3.73l-25.13-6.73a126.45,126.45,0,0,0,0-37.86l25.13-6.73a3,3,0,0,0,2.15-3.73l-5.73-21.38a3,3,0,0,0-3.73-2.16l-25,6.71a126.6,126.6,0,0,0-19-32.82l18.33-18.33a3,3,0,0,0,0-4.31L986,1188.11a3,3,0,0,0-3-.77,3.24,3.24,0,0,0-1.29.77l-18.39,18.39a126.59,126.59,0,0,0-32.78-18.93l6.73-25.12a3,3,0,0,0-2.16-3.73L913.7,1153a2.83,2.83,0,0,0-1.5,0,3,3,0,0,0-2.23,2.17l-6.73,25.13a126.45,126.45,0,0,0-37.86,0l-6.73-25.13a3,3,0,0,0-3.73-2.15Zm28.86,65a84.57,84.57,0,0,1,25.15-2.82,84.65,84.65,0,0,1,69.69,41.6h0q2.14,3.65,3.93,7.5h0a84.54,84.54,0,0,1,3.15,7.85c.66,1.88,1.24,3.79,1.76,5.72q1.09,4.1,1.78,8.28A84.66,84.66,0,0,1,912,1385.45q-2.84,1-5.73,1.75-4.08,1.1-8.27,1.78a84.68,84.68,0,0,1-86.56-40.56,82.28,82.28,0,0,1-3.93-7.5h0a84.62,84.62,0,0,1-3.16-7.85h0c-.65-1.89-1.24-3.8-1.75-5.73a82.75,82.75,0,0,1-1.78-8.27,84.61,84.61,0,0,1,61.63-95.4Z" transform="translate(0 0)"/><path class="cls-3" d="M884.31,1211.28a94.16,94.16,0,1,0,94.16,94.15A94.15,94.15,0,0,0,884.31,1211.28Zm0,9.5a84.65,84.65,0,1,1-84.65,84.65A84.65,84.65,0,0,1,884.31,1220.78Z" transform="translate(0 0)"/><path class="cls-4" d="M373,130.73a4.54,4.54,0,0,0-5.15,3.79L365,154.89a165.31,165.31,0,0,0-52.25,6.51L305,142.17a4.72,4.72,0,0,0-3.72-2.79,5,5,0,0,0-2.22.29l-22.44,9.07a4.48,4.48,0,0,0-2.5,5.87l7.72,19.22a165.2,165.2,0,0,0-42,31.67l-16.3-12.8a4.94,4.94,0,0,0-2.07-.93,4.65,4.65,0,0,0-4.29,1.72l-14.94,19.08a4.4,4.4,0,0,0,.79,6.29l16.3,12.8a164.36,164.36,0,0,0-20.59,48.39l-20.51-2.86a4.54,4.54,0,0,0-5.15,3.79l-3.36,24a4.54,4.54,0,0,0,3.79,5.15L193.89,313a165.35,165.35,0,0,0,6.51,52.25L181.17,373a4.52,4.52,0,0,0-2.5,5.86l9.08,22.51a4.52,4.52,0,0,0,5.86,2.5l19.22-7.72a164.68,164.68,0,0,0,31.67,42l-12.8,16.37a4.48,4.48,0,0,0,.79,6.36l19.08,14.94a4.46,4.46,0,0,0,6.29-.79l12.8-16.37a164.53,164.53,0,0,0,48.39,20.66l-2.86,20.51a4.43,4.43,0,0,0,3.79,5.08l24,3.43a4.54,4.54,0,0,0,5.15-3.86l2.86-20.3a165.63,165.63,0,0,0,52.25-6.5L412,496.76a4.46,4.46,0,0,0,5.86,2.5l22.51-9a4.61,4.61,0,0,0,2.5-5.93l-7.72-19.16a166.51,166.51,0,0,0,42-31.66l16.37,12.79a4.54,4.54,0,0,0,6.36-.79l14.94-19.08a4.54,4.54,0,0,0-.79-6.36l-16.37-12.8a162.86,162.86,0,0,0,20.66-48.39l20.51,2.94a4.43,4.43,0,0,0,5.08-3.86L547.27,334a4.54,4.54,0,0,0-3.86-5.15L523,326a163.54,163.54,0,0,0-6.43-52.25L535.76,266a4.52,4.52,0,0,0,2.5-5.93l-9-22.45a4.46,4.46,0,0,0-3.72-2.79,4,4,0,0,0-2.21.29l-19.16,7.72a167,167,0,0,0-31.66-42l12.79-16.29a4.55,4.55,0,0,0-.79-6.37l-19.08-14.93a4.43,4.43,0,0,0-6.36.78l-12.8,16.3a162.69,162.69,0,0,0-48.39-20.59l2.93-20.51a4.53,4.53,0,0,0-3.86-5.15Zm3.15,64a126,126,0,0,1-35.31,249.46c-68.91-9.8-116.87-73.55-107.07-142.38A125.9,125.9,0,0,1,376.16,194.77Z" transform="translate(0 0)"/><path class="cls-4" d="M394.65,1039.75a3.15,3.15,0,0,0-2.45,3.72l2.64,13.9a79.72,79.72,0,0,0-30.15,19.78L353,1069.22a2.88,2.88,0,0,0-2.35-.49,3.08,3.08,0,0,0-2.05,1.27l-11.75,17.43a3.14,3.14,0,0,0,.78,4.4l11.75,7.93A81.32,81.32,0,0,0,342,1135l-13.7,2.64a3.17,3.17,0,0,0-2.55,3.72l3.92,20.65a3.26,3.26,0,0,0,3.72,2.55l13.9-2.65A80.07,80.07,0,0,0,367,1192l-7.93,11.65a3.23,3.23,0,0,0,.79,4.4l17.42,11.85a3.18,3.18,0,0,0,4.41-.89l7.93-11.65a79.75,79.75,0,0,0,35.24,7.35l2.64,13.8a3.25,3.25,0,0,0,3.72,2.54l20.66-4a3.1,3.1,0,0,0,2.54-3.62l-2.64-13.9a80.13,80.13,0,0,0,30.05-19.78l11.65,7.93a3.17,3.17,0,0,0,4.41-.88l11.84-17.42a3.2,3.2,0,0,0-.88-4.41L497.24,1167a79.32,79.32,0,0,0,7.34-35.24l13.81-2.65a3.15,3.15,0,0,0,2.54-3.72l-4-20.65a3,3,0,0,0-3.63-2.45l-13.9,2.65a79.65,79.65,0,0,0-19.77-30.16l7.93-11.64a3.17,3.17,0,0,0-.88-4.41L469.24,1047a2.92,2.92,0,0,0-2.35-.49,3.28,3.28,0,0,0-2.05,1.28l-7.93,11.74a81,81,0,0,0-35.25-7.44l-2.64-13.7a3.09,3.09,0,0,0-3.72-2.55Zm20.26,49.64a44.85,44.85,0,1,1-35.63,52.47A44.83,44.83,0,0,1,414.91,1089.39Z" transform="translate(0 0)"/><path class="cls-4" d="M764.5,482.25l-29.52.41-4.21,40.93q-10.23.9-20.35,2.73l-14.78-38.76L667,494.81l6.14,41.76q-9.66,3.58-19,8l-24.54-33.92-25.76,14.4,16.87,39.08q-8.36,5.87-16.18,12.48L571.9,550.06l-21.16,20.59L577.11,604q-6.54,7.86-12.36,16.27L526.34,603,511.23,628.4,545.58,654q-4.27,9.19-7.72,18.75L496.06,666l-8,28.4,39.73,15.77q-1.83,10-2.74,20.1l-42.36,4.36-.41,29.51,42.71,5q.81,10.14,2.52,20.17l-39.55,15.08L495.17,833l42.43-6.23c2.3,6.37,4.89,12.65,7.75,18.79L511,870.36l14.41,25.76,39.14-16.9q5.79,8.43,12.33,16.31L550.43,928.1,571,949.26l33-26.12q7.89,6.68,16.36,12.6l-17,37.92,25.36,15.11,25-33.62q9.36,4.46,19.12,8.06l-6.54,40.73,28.4,8L710,973.56q10.32,2,20.78,3l4.2,40.83,29.52.41,4.77-41q10.71-.81,21.31-2.62l15,37.89,28.4-8-6.39-39.82q10-3.57,19.68-8.07l24.32,32.7L897,973.73l-16.38-36.6q8.82-6.06,17-13l31.74,25.12L950,928.15l-25.05-30.81q7-8.25,13.15-17.13L975,896.15l14.4-25.77L957.1,847q4.59-9.75,8.25-19.9l39.93,5.86,7.25-28.61L975.35,790.2q1.92-10.65,2.84-21.46l39.56-4.6-.41-29.52-39.19-4q-.9-10.8-2.84-21.48l37.11-14.73-8-28.4-39.16,6.29q-3.71-10.12-8.34-19.86l32.31-24L974.09,603l-36.53,16.36q-6.15-8.76-13.1-16.92l25.2-31.85L928.51,550l-31.15,25.33q-8.19-6.87-17-12.93L896.51,525l-25.76-14.4-23.89,33q-9.57-4.41-19.53-7.91l6-41-28.61-7.24L790.06,526q-10.32-1.79-20.77-2.63ZM751.58,721.53A28.47,28.47,0,1,1,723.11,750,28.47,28.47,0,0,1,751.58,721.53Z" transform="translate(0 0)"/><path class="cls-4" d="M1465.37,686.08l-3.92,25.68q-6.17.29-12.29,1.12l-8.36-24.5-17.54,3.79,2.88,26q-5.9,1.86-11.61,4.24L1400.2,701l-16,8.19,9.48,24.28c-3.46,2.24-6.83,4.63-10.08,7.16l-19.38-16.94-13.29,12,15.35,20.88c-2.8,3.06-5.47,6.24-8,9.54l-22.91-11.25L1325.7,770l20,16q-2.88,5.58-5.24,11.42l-24.77-4.89-5.5,17.08,23.34,10.23q-1.37,6.17-2.17,12.43l-25,1.69-.89,17.92,24.84,3.79q.26,6.38,1.09,12.7l-23.62,8.07,3.79,17.54,24.91-2.76c1.3,4.15,2.79,8.25,4.47,12.27l-20.4,14.07,8.64,15.74,22.71-9.23q3.48,5.46,7.47,10.56l-16,18.87,12.41,13,19.44-14.7q4.8,4.4,10,8.33l-10.55,22.23,15.35,9.31,14.83-19q5.84,3,11.94,5.46l-4.41,24,17.23,5,9.43-22.31q6.4,1.4,12.92,2.17l2,24.46,17.94.41,3.33-24q6.59-.3,13.1-1.24l8.13,22.8,3.66-.89V912.39a39.72,39.72,0,0,1,0-37.66v-56.5a39.85,39.85,0,0,1-.12-77.7l.12,0V708.2l-2.83,6.45q-6-1.27-12.16-2L1483.28,687Zm-65.21,78.23a39.91,39.91,0,1,1-7.9,1A40.4,40.4,0,0,1,1400.16,764.31Zm67.77,68.19a17.27,17.27,0,1,1-3.43.43A18,18,0,0,1,1467.93,832.5Zm-41.48,46a39.87,39.87,0,1,1-7.89,1A39.88,39.88,0,0,1,1426.45,878.47Z" transform="translate(0 0)"/><path class="cls-4" d="M1043.3,376.11a2.16,2.16,0,0,0-1.69,2.56l1.83,9.59a54.91,54.91,0,0,0-20.8,13.64l-8-5.47a2,2,0,0,0-1.62-.34,2.13,2.13,0,0,0-1.42.88l-8.1,12a2.16,2.16,0,0,0,.54,3l8.1,5.47a55.91,55.91,0,0,0-5.13,24.3l-9.46,1.82a2.2,2.2,0,0,0-1.75,2.57l2.7,14.25a2.25,2.25,0,0,0,2.57,1.75l9.58-1.82a55.2,55.2,0,0,0,13.64,20.72l-5.47,8a2.24,2.24,0,0,0,.54,3l12,8.17a2.19,2.19,0,0,0,3-.61l5.47-8a54.87,54.87,0,0,0,24.3,5.07l1.83,9.52a2.24,2.24,0,0,0,2.56,1.75l14.25-2.77a2.15,2.15,0,0,0,1.76-2.49l-1.83-9.59a55.2,55.2,0,0,0,20.73-13.64l8,5.47a2.18,2.18,0,0,0,3-.61l8.17-12a2.2,2.2,0,0,0-.61-3l-8-5.46a54.73,54.73,0,0,0,5.06-24.31l9.52-1.82a2.18,2.18,0,0,0,1.76-2.57l-2.77-14.25a2.1,2.1,0,0,0-2.5-1.68l-9.59,1.82a55,55,0,0,0-13.63-20.8l5.46-8a2.18,2.18,0,0,0-.6-3l-12-8.1a2,2,0,0,0-1.62-.34,2.28,2.28,0,0,0-1.42.88l-5.47,8.1a55.71,55.71,0,0,0-24.31-5.13l-1.82-9.45a2.12,2.12,0,0,0-2.56-1.76Zm14,34.23a30.93,30.93,0,1,1-24.58,36.19A30.92,30.92,0,0,1,1057.28,410.34Z" transform="translate(0 0)"/><path class="cls-4" d="M110.67,0A129.12,129.12,0,0,1,53.84,122.65,128.67,128.67,0,0,1,0,143v15.52a147.05,147.05,0,0,0,25.41-5.36l3.93,11.63,6.08-2L31.5,151a141.81,141.81,0,0,0,28.22-13.72l6.79,10.29L71.9,144,65,133.71a143.82,143.82,0,0,0,23.6-20.64l9.31,8.18,4.27-4.83L93,108.31a145.13,145.13,0,0,0,17.57-26l11,5.46L124.4,82l-11.13-5.53a142.56,142.56,0,0,0,10.15-29.62l12.18,2.46,1.26-6.3-12-2.46a146.18,146.18,0,0,0,2.1-31.29l12.32-.77L138.83,2l-12.32.77c-.09-.94-.22-1.86-.32-2.8Z" transform="translate(0 0)"/><path class="cls-4" d="M0,0V30.73L83,95.84c.63-.77,1.26-1.54,1.82-2.31L1.54,28.14c.56-.84,1-1.75,1.54-2.66L100.46,67c.42-.84.77-1.75,1.2-2.66L4.2,22.75c.35-1,.63-2,.91-3l104.8,15,.42-2.95L5.46,16.88a17.54,17.54,0,0,0,.15-1.83,7.31,7.31,0,0,1-.08-1.32L110.75,1.05c0-.35-.1-.7-.14-1H94.74L5.18,10.86a21.21,21.21,0,0,0-.84-3L23.87,0H16L3.29,5.12A16.84,16.84,0,0,0,1.76,2.38L4.93,0ZM0,36v4.92l58.67,78.18c.77-.56,1.54-1.19,2.31-1.75ZM0,54.91v7.85l29.12,72.5,2.74-1.06Z" transform="translate(0 0)"/><path class="cls-4" d="M7.63,690.81,0,708.21v32.3a39.88,39.88,0,0,1,17.79,77.75,39.87,39.87,0,0,1-17.79,0v56.5a39.86,39.86,0,1,1,0,37.66v96.14l13.77-3.37-3-23.78q6.28-2,12.34-4.61l13.79,20,15.72-8.64L43.6,965.77q5.49-3.57,10.62-7.65L72.87,974l13-12.41L71.15,942.16q4.35-4.85,8.24-10.07l22.31,10.59,9.3-15.34-19.25-15q2.94-5.79,5.34-11.84L121.45,905l5-17.23-22.83-9.64q1.31-6.29,2-12.65l25.11-2,.41-17.94L106.37,842q-.34-6.36-1.27-12.66l23.67-8.46-4.26-17.43-24.83,3.09q-1.94-5.94-4.4-11.68l21-14-8.2-16-23.9,9.33c-2.3-3.49-4.75-6.88-7.35-10.14l16.75-19.18-12-13.29L60.63,746.93Q56,742.78,51,739.05l11.29-23-15.08-9.72L31.09,726.51q-5.55-2.81-11.32-5.11l4.94-25.11Z" transform="translate(0 0)"/><path class="cls-4" d="M1475.85,1358.23l-6.44.42.77,12.33a148.15,148.15,0,0,0-30.73,5.94l-3.93-11.62-6.16,2,4,11.76a145.65,145.65,0,0,0-28.21,13.65l-6.79-10.21-5.39,3.56,6.86,10.29a143.94,143.94,0,0,0-23.6,20.59l-9.31-8.19-4.27,4.83,9.25,8.19a142.26,142.26,0,0,0-17.57,26l-11-5.46-2.87,5.81,11.13,5.46a144.29,144.29,0,0,0-10.15,29.68l-12.18-2.44-1.26,6.3,12,2.44c-.61,3.46-1,7-1.4,10.44h15.57A129,129,0,0,1,1500,1387.15v-15.67a147.15,147.15,0,0,0-23.38-.93Z" transform="translate(0 0)"/><path class="cls-4" d="M1468.43,1386.66c-1,.14-2,.35-3,.49l12.75,105.15c-1,.21-2,.49-3,.77l-39.49-98.22c-.91.28-1.82.63-2.73,1l39.48,98.35a13.1,13.1,0,0,0-2.73,1.55L1406.19,1411c-.77.63-1.54,1.19-2.31,1.82l63.49,84.7a21.25,21.25,0,0,0-2.17,2.18l-83.37-65.39a26.16,26.16,0,0,0-1.82,2.24l80.81,63.5H1478a14.15,14.15,0,0,1,8.79,0H1500a21.17,21.17,0,0,0-2.17-2.17l2.17-2.78v-4.83l-4.48,5.72c-.84-.56-1.75-1-2.66-1.54l7.14-16.75v-7.51l-9.87,23.14c-1-.35-2-.63-3-.91l12.88-90.1v-15l-.84-.12L1484.25,1492a17.24,17.24,0,0,0-1.82-.14c-.42,0-.91.07-1.33.07Zm-104,76.38c-.42.91-.77,1.82-1.19,2.73l80.24,34.23H1451Zm-9.44,32.34c-.15,1-.29,2-.43,2.87l12.25,1.75h20.51Z" transform="translate(0 0)"/><path class="cls-4" d="M1338.63,0a146.7,146.7,0,0,0-.7,20.86l-12.32.77.42,6.44,12.32-.77a143.82,143.82,0,0,0,6,30.74L1332.68,62l2,6.16,11.69-4a150.11,150.11,0,0,0,13.72,28.21l-10.22,6.79,3.57,5.39,10.29-6.86a143.87,143.87,0,0,0,20.59,23.59l-8.19,9.31,4.82,4.27,8.2-9.24a142.31,142.31,0,0,0,26,17.58l-5.46,11,5.81,2.87,5.46-11.14A144.29,144.29,0,0,0,1450.64,156l-2.45,12.18,6.31,1.26,2.44-12a146.28,146.28,0,0,0,31.3,2.11l.77,12.32,6.44-.42-.77-12.32c1.78-.16,3.55-.39,5.32-.6V143a129.2,129.2,0,0,1-125.18-56.55A128.71,128.71,0,0,1,1354.2,0Z" transform="translate(0 0)"/><path class="cls-4" d="M1366.77,0l92.63,13.23a14,14,0,0,0-.15,1.82c0,.42.07.85.07,1.34L1354.1,29.06c.14,1,.28,2,.42,2.86l105.15-12.67a21.21,21.21,0,0,0,.84,3l-98.29,39.49,1,2.73L1461.56,25a17.31,17.31,0,0,0,1.54,2.74l-84.7,63.56c.56.77,1.19,1.54,1.75,2.31L1464.85,30a22.06,22.06,0,0,0,2.18,2.24l-65.39,83.38c.77.63,1.47,1.27,2.24,1.83l65.45-83.38a20.68,20.68,0,0,0,2.66,1.61l-41.58,97.37c.91.35,1.82.77,2.73,1.13l41.58-97.38a21.19,21.19,0,0,0,3,.83l-15,104.88c1,.14,2,.28,2.93.35l14.92-104.8a15.65,15.65,0,0,0,1.81.07h1.33l12.67,105.23,2.95-.43L1486.62,37.82a21.37,21.37,0,0,0,3-.85L1500,62.77V54.92l-7.63-19a17.2,17.2,0,0,0,2.73-1.54l4.9,6.53V36l-2.52-3.36c.77-.7,1.47-1.4,2.17-2.17l.35.28V0h-13.18A15.76,15.76,0,1,1,1478,0h-17.21l2.49,2c-.56.84-1,1.76-1.54,2.67L1451,0h-7.52l17.22,7.34c-.35,1-.63,2-.91,3L1387.28,0Z" transform="translate(0 0)"/><path class="cls-4" d="M10.36,1360.61l-2.45,12Q4,1372,0,1371.48v15.67a128.84,128.84,0,0,1,90,56.49A128.53,128.53,0,0,1,110.67,1500h15.52a147,147,0,0,0-5.64-27.93l11.63-3.92-2-6.16-11.77,4a142,142,0,0,0-13.72-28.21L115,1431l-3.58-5.39-10.29,6.86a144.23,144.23,0,0,0-20.65-23.59l8.19-9.32-4.83-4.27-8.12,9.25a144.42,144.42,0,0,0-26-17.57l5.47-11-5.82-2.87-5.53,11.13a142.28,142.28,0,0,0-29.61-10.15l2.46-12.18Z" transform="translate(0 0)"/><path class="cls-4" d="M0,1387.27v15l2.11-14.7Zm31.72,8.56L0,1470.14v7.51L34.38,1397C33.54,1396.6,32.63,1396.25,31.72,1395.83Zm29.19,16.8L0,1490.22v4.84l63.22-80.61C62.45,1413.82,61.68,1413.19,60.91,1412.63Zm23.8,23.87L0,1500H4.92l81.54-61.19C85.9,1438,85.27,1437.27,84.71,1436.5Zm16.87,29.13L16,1500h7.85l78.78-31.65Zm8.75,32.48L94.73,1500h15.88C110.52,1499.37,110.42,1498.74,110.33,1498.11Z" transform="translate(0 0)"/><path class="cls-2" d="M2333.54,1158.71a3,3,0,0,0-2.15,3.73l6.71,25a126.82,126.82,0,0,0-32.83,19l-18.33-18.34a3.05,3.05,0,0,0-3-.77,3.24,3.24,0,0,0-1.29.77L2267,1203.76a3,3,0,0,0,0,4.3l18.39,18.39a126.49,126.49,0,0,0-18.93,32.79l-25.12-6.73a2.73,2.73,0,0,0-1.5,0,3,3,0,0,0-2.23,2.18l-5.73,21.38a3,3,0,0,0,2.15,3.73l25.13,6.73a127.11,127.11,0,0,0,0,37.86L2234,1331.1a3,3,0,0,0-2.15,3.73l5.73,21.38a3,3,0,0,0,3.73,2.16l25-6.71a127.18,127.18,0,0,0,18.95,32.82L2267,1402.81a3,3,0,0,0,0,4.31l15.65,15.65a3,3,0,0,0,4.31,0l18.39-18.39a126.49,126.49,0,0,0,32.79,18.93l-6.73,25.12a3,3,0,0,0,2.15,3.73l21.38,5.73a3,3,0,0,0,3.73-2.15l6.73-25.13a126.45,126.45,0,0,0,37.86,0l6.73,25.13a3,3,0,0,0,3.73,2.15l21.38-5.73a3,3,0,0,0,2.16-3.73l-6.71-25a127,127,0,0,0,32.82-19l18.33,18.33a3,3,0,0,0,4.31,0l15.65-15.65a3,3,0,0,0,0-4.31l-18.39-18.39a126.49,126.49,0,0,0,18.93-32.79l25.12,6.74a3,3,0,0,0,3.73-2.16l5.73-21.38a3,3,0,0,0-2.15-3.73l-25.13-6.73a127.11,127.11,0,0,0,0-37.86l25.13-6.73a3,3,0,0,0,2.15-3.73l-5.73-21.38a3,3,0,0,0-3.73-2.16l-25,6.71a127.18,127.18,0,0,0-19-32.82l18.33-18.33a3,3,0,0,0,0-4.31L2486,1188.11a3,3,0,0,0-3-.77,3.24,3.24,0,0,0-1.29.77l-18.39,18.39a126.49,126.49,0,0,0-32.79-18.93l6.73-25.12a3,3,0,0,0-2.15-3.73L2413.7,1153a2.83,2.83,0,0,0-1.5,0,3,3,0,0,0-2.23,2.17l-6.73,25.13a126.45,126.45,0,0,0-37.86,0l-6.73-25.13a3,3,0,0,0-3.73-2.15Zm28.86,65a84.68,84.68,0,0,1,94.84,38.78h0a83.4,83.4,0,0,1,3.92,7.5h0a81.93,81.93,0,0,1,3.16,7.85c.66,1.88,1.24,3.79,1.76,5.72q1.1,4.1,1.78,8.28a84.7,84.7,0,0,1-55.91,93.65q-2.84,1-5.73,1.75-4.09,1.1-8.27,1.78a84.68,84.68,0,0,1-86.56-40.56,82.28,82.28,0,0,1-3.93-7.5h0a84.62,84.62,0,0,1-3.16-7.85h0q-1-2.83-1.76-5.73a82.71,82.71,0,0,1-1.77-8.27,84.61,84.61,0,0,1,61.63-95.4Z" transform="translate(0 0)"/><path class="cls-3" d="M2384.31,1211.28a94.16,94.16,0,1,0,94.16,94.15A94.15,94.15,0,0,0,2384.31,1211.28Zm0,9.5a84.65,84.65,0,1,1-84.65,84.65A84.65,84.65,0,0,1,2384.31,1220.78Z" transform="translate(0 0)"/><path class="cls-4" d="M1873,130.73a4.54,4.54,0,0,0-5.15,3.79L1865,154.89a165.25,165.25,0,0,0-52.24,6.51L1805,142.17a4.72,4.72,0,0,0-3.72-2.79,5,5,0,0,0-2.22.29l-22.44,9.07a4.48,4.48,0,0,0-2.5,5.87l7.72,19.22a165.2,165.2,0,0,0-42,31.67l-16.3-12.8a5,5,0,0,0-2.07-.93,4.64,4.64,0,0,0-4.29,1.72l-14.94,19.08a4.4,4.4,0,0,0,.79,6.29l16.3,12.8a164.36,164.36,0,0,0-20.59,48.39l-20.51-2.86a4.54,4.54,0,0,0-5.15,3.79l-3.36,24a4.54,4.54,0,0,0,3.79,5.15l20.37,2.86a165.35,165.35,0,0,0,6.51,52.25L1681.17,373a4.52,4.52,0,0,0-2.5,5.86l9.07,22.51a4.54,4.54,0,0,0,5.87,2.5l19.22-7.72a164.68,164.68,0,0,0,31.67,42l-12.8,16.37a4.48,4.48,0,0,0,.79,6.36l19.08,14.94a4.46,4.46,0,0,0,6.29-.79l12.8-16.37a164.53,164.53,0,0,0,48.39,20.66l-2.86,20.51a4.43,4.43,0,0,0,3.78,5.08l24,3.43a4.54,4.54,0,0,0,5.15-3.86l2.86-20.3a165.63,165.63,0,0,0,52.25-6.5l7.71,19.15a4.48,4.48,0,0,0,5.87,2.5l22.51-9a4.61,4.61,0,0,0,2.5-5.93l-7.72-19.16a166.69,166.69,0,0,0,42-31.66l16.37,12.79a4.54,4.54,0,0,0,6.36-.79l14.94-19.08a4.54,4.54,0,0,0-.79-6.36l-16.37-12.8a162.86,162.86,0,0,0,20.66-48.39l20.51,2.94a4.44,4.44,0,0,0,5.08-3.86l3.43-23.95a4.54,4.54,0,0,0-3.86-5.15L2023,326a163.27,163.27,0,0,0-6.44-52.25l19.16-7.72a4.52,4.52,0,0,0,2.5-5.93l-9-22.45a4.46,4.46,0,0,0-3.72-2.79,4,4,0,0,0-2.22.29l-19.15,7.72a166.84,166.84,0,0,0-31.67-42l12.8-16.29a4.55,4.55,0,0,0-.79-6.37l-19.08-14.93a4.56,4.56,0,0,0-2-.93,4.51,4.51,0,0,0-4.36,1.71l-12.8,16.3a162.8,162.8,0,0,0-48.39-20.59l2.93-20.51a4.54,4.54,0,0,0-3.86-5.15Zm3.14,64a126,126,0,1,1-35.3,249.46c-68.91-9.8-116.87-73.55-107.08-142.38A125.9,125.9,0,0,1,1876.15,194.77Z" transform="translate(0 0)"/><path class="cls-4" d="M1894.65,1039.75a3.14,3.14,0,0,0-2.45,3.72l2.64,13.9a79.72,79.72,0,0,0-30.15,19.78l-11.65-7.93a2.88,2.88,0,0,0-2.35-.49,3.08,3.08,0,0,0-2,1.27l-11.75,17.43a3.13,3.13,0,0,0,.78,4.4l11.75,7.93A81.18,81.18,0,0,0,1842,1135l-13.71,2.64a3.18,3.18,0,0,0-2.54,3.72l3.92,20.65a3.26,3.26,0,0,0,3.72,2.55l13.9-2.65A80.07,80.07,0,0,0,1867,1192l-7.93,11.65a3.23,3.23,0,0,0,.78,4.4l17.43,11.85a3.16,3.16,0,0,0,4.4-.89l7.93-11.65a79.82,79.82,0,0,0,35.25,7.35l2.64,13.8a3.25,3.25,0,0,0,3.72,2.54l20.66-4a3.11,3.11,0,0,0,2.54-3.62l-2.64-13.9a80.13,80.13,0,0,0,30-19.78l11.65,7.93a3.15,3.15,0,0,0,4.4-.88l11.85-17.42a3.21,3.21,0,0,0-.88-4.41l-11.65-7.93a79.45,79.45,0,0,0,7.34-35.24l13.8-2.65a3.16,3.16,0,0,0,2.55-3.72l-4-20.65a3,3,0,0,0-3.62-2.45l-13.9,2.65a79.65,79.65,0,0,0-19.77-30.16l7.93-11.64a3.18,3.18,0,0,0-.89-4.41L1969.24,1047a2.94,2.94,0,0,0-2.35-.49,3.32,3.32,0,0,0-2.06,1.28l-7.93,11.74a80.94,80.94,0,0,0-35.24-7.44l-2.64-13.7a3.09,3.09,0,0,0-3.72-2.55Zm20.26,49.64a44.85,44.85,0,1,1-35.63,52.47A44.82,44.82,0,0,1,1914.91,1089.39Z" transform="translate(0 0)"/><path class="cls-4" d="M2264.5,482.25l-29.52.41-4.21,40.93q-10.23.9-20.35,2.73l-14.79-38.76L2167,494.81l6.14,41.76q-9.67,3.58-19,8l-24.54-33.92-25.76,14.4,16.87,39.08q-8.37,5.87-16.18,12.48l-32.68-26.58-21.15,20.59L2077.11,604q-6.54,7.86-12.36,16.27L2026.33,603l-15.1,25.36L2045.58,654q-4.27,9.19-7.72,18.75l-41.8-6.71-8,28.4,39.72,15.77q-1.82,10-2.74,20.1l-42.35,4.36-.41,29.51,42.71,5q.81,10.14,2.51,20.17l-39.54,15.08,7.24,28.62,42.42-6.23c2.31,6.37,4.89,12.65,7.76,18.79L2011,870.36l14.41,25.76,39.14-16.9q5.79,8.43,12.33,16.31l-26.49,32.57L2071,949.26l33-26.12q7.89,6.68,16.36,12.6l-17,37.92,25.36,15.11,25-33.62q9.38,4.46,19.12,8.06l-6.54,40.73,28.41,8L2210,973.56q10.32,2,20.78,3l4.2,40.83,29.52.41,4.77-41q10.71-.81,21.31-2.62l15,37.89,28.4-8-6.39-39.82q10-3.57,19.68-8.07l24.32,32.7L2397,973.73l-16.39-36.6q8.84-6.06,17.06-13l31.74,25.12L2450,928.15l-25-30.81q7-8.25,13.15-17.13L2475,896.15l14.4-25.77L2457.1,847q4.59-9.75,8.25-19.9l39.93,5.86,7.24-28.61-37.18-14.18q1.93-10.65,2.85-21.46l39.56-4.6-.41-29.52-39.19-4q-.9-10.8-2.84-21.48l37.11-14.73-8-28.4-39.16,6.29q-3.7-10.12-8.35-19.86l32.32-24L2474.09,603l-36.53,16.36q-6.15-8.76-13.1-16.92l25.2-31.85L2428.51,550l-31.15,25.33q-8.19-6.87-17-12.93L2396.51,525l-25.76-14.4-23.89,33q-9.57-4.41-19.53-7.91l6-41-28.61-7.24L2290.06,526c-6.88-1.19-13.82-2.07-20.78-2.63Zm-12.92,239.28A28.47,28.47,0,1,1,2223.11,750,28.47,28.47,0,0,1,2251.58,721.53Z" transform="translate(0 0)"/><path class="cls-4" d="M2965.36,686.08l-3.92,25.68q-6.15.29-12.28,1.12l-8.36-24.5-17.54,3.79,2.88,26q-5.89,1.86-11.61,4.24L2900.2,701l-16,8.19,9.48,24.28q-5.2,3.36-10.08,7.16l-19.38-16.94-13.29,12,15.35,20.88q-4.2,4.59-8,9.54l-22.91-11.25L2825.7,770l20,16q-2.88,5.58-5.24,11.42l-24.78-4.89-5.49,17.08,23.34,10.23q-1.38,6.17-2.17,12.43l-25,1.69-.89,17.92,24.84,3.79q.26,6.38,1.09,12.7l-23.62,8.07,3.79,17.54,24.91-2.76c1.3,4.15,2.79,8.25,4.47,12.27l-20.4,14.07,8.64,15.74,22.71-9.23q3.48,5.46,7.46,10.56l-16,18.87,12.4,13,19.45-14.7q4.8,4.4,10,8.33l-10.55,22.23,15.34,9.31,14.84-19q5.84,3,11.93,5.46l-4.4,24,17.23,5,9.43-22.31q6.4,1.4,12.92,2.17l2,24.46,17.94.41,3.33-24q6.57-.3,13.1-1.24l8.13,22.8,3.66-.89V912.39a39.63,39.63,0,0,1,0-37.66v-56.5a39.85,39.85,0,0,1-.12-77.7l.12,0V708.2l-2.83,6.45q-6-1.27-12.16-2L2983.28,687Zm-65.2,78.23a39.91,39.91,0,1,1-7.9,1A40.4,40.4,0,0,1,2900.16,764.31Zm67.77,68.19a17.27,17.27,0,1,1-3.43.43A17.88,17.88,0,0,1,2967.93,832.5Zm-41.48,46a39.86,39.86,0,1,1-7.9,1A39.87,39.87,0,0,1,2926.45,878.47Z" transform="translate(0 0)"/><path class="cls-4" d="M2543.3,376.11a2.16,2.16,0,0,0-1.69,2.56l1.82,9.59a55,55,0,0,0-20.79,13.64l-8-5.47a2,2,0,0,0-1.62-.34,2.09,2.09,0,0,0-1.41.88l-8.11,12a2.18,2.18,0,0,0,.54,3l8.11,5.47a56.06,56.06,0,0,0-5.14,24.3l-9.45,1.82a2.2,2.2,0,0,0-1.75,2.57l2.7,14.25a2.25,2.25,0,0,0,2.56,1.75l9.59-1.82a55.08,55.08,0,0,0,13.64,20.72l-5.47,8a2.23,2.23,0,0,0,.54,3l12,8.17a2.19,2.19,0,0,0,3-.61l5.47-8a54.87,54.87,0,0,0,24.3,5.07l1.83,9.52a2.23,2.23,0,0,0,2.56,1.75l14.25-2.77a2.13,2.13,0,0,0,1.75-2.49l-1.82-9.59a55.2,55.2,0,0,0,20.73-13.64l8,5.47a2.18,2.18,0,0,0,3-.61l8.17-12a2.22,2.22,0,0,0-.61-3l-8-5.46a54.87,54.87,0,0,0,5.06-24.31l9.52-1.82a2.18,2.18,0,0,0,1.76-2.57l-2.77-14.25a2.1,2.1,0,0,0-2.5-1.68l-9.59,1.82a54.91,54.91,0,0,0-13.64-20.8l5.47-8a2.18,2.18,0,0,0-.61-3l-12-8.1a2,2,0,0,0-1.62-.34,2.28,2.28,0,0,0-1.42.88l-5.47,8.1a55.71,55.71,0,0,0-24.31-5.13l-1.82-9.45a2.12,2.12,0,0,0-2.56-1.76Zm14,34.23a30.93,30.93,0,1,1-24.58,36.19A30.92,30.92,0,0,1,2557.28,410.34Z" transform="translate(0 0)"/><path class="cls-4" d="M1610.67,0a129.11,129.11,0,0,1-56.84,122.65A128.63,128.63,0,0,1,1500,143v15.52a147.05,147.05,0,0,0,25.41-5.36l3.92,11.63,6.09-2L1531.5,151a142.34,142.34,0,0,0,28.22-13.72l6.79,10.29,5.39-3.58L1565,133.71a144.24,144.24,0,0,0,23.6-20.64l9.31,8.18,4.27-4.83-9.24-8.11a145.13,145.13,0,0,0,17.57-26l11,5.46L1624.4,82l-11.13-5.53a142.56,142.56,0,0,0,10.15-29.62l12.18,2.46,1.26-6.3-12-2.46a146.18,146.18,0,0,0,2.1-31.29l12.32-.77L1638.83,2l-12.32.77c-.09-.94-.22-1.86-.32-2.8Z" transform="translate(0 0)"/><path class="cls-4" d="M1500,0V30.73l83,65.11c.63-.77,1.25-1.54,1.81-2.31l-83.3-65.39c.56-.84,1-1.75,1.54-2.66L1600.46,67c.42-.84.77-1.75,1.19-2.66L1504.2,22.75c.35-1,.63-2,.91-3l104.8,15,.42-2.95-104.87-14.9a17.54,17.54,0,0,0,.15-1.83,7.31,7.31,0,0,1-.08-1.32L1610.75,1.05c0-.35-.1-.7-.14-1h-15.87l-89.56,10.86a21.21,21.21,0,0,0-.84-3L1523.87,0H1516l-12.73,5.12a16.84,16.84,0,0,0-1.53-2.74L1504.93,0Zm0,36v4.92l58.67,78.18c.77-.56,1.54-1.19,2.31-1.75Zm0,18.92v7.85l29.12,72.5,2.73-1.06Z" transform="translate(0 0)"/><path class="cls-4" d="M1507.63,690.81l-7.63,17.4v32.3a39.88,39.88,0,1,1,0,77.72v56.5a39.86,39.86,0,1,1,0,37.66v96.14l13.77-3.37-3-23.78q6.27-2,12.34-4.61l13.79,20,15.72-8.64-9.07-22.34q5.49-3.57,10.63-7.65L1572.87,974l13-12.41-14.68-19.41q4.35-4.85,8.24-10.07l22.31,10.59,9.3-15.34-19.26-15q3-5.79,5.34-11.84l24.36,4.47,5-17.23-22.83-9.64q1.3-6.29,2-12.65l25.11-2,.4-17.94L1606.37,842q-.34-6.36-1.27-12.66l23.67-8.46-4.26-17.43-24.83,3.09q-1.93-5.94-4.4-11.68l21-14-8.2-16-23.9,9.33c-2.3-3.49-4.75-6.88-7.35-10.14l16.75-19.18-12-13.29-20.85,15.33q-4.62-4.15-9.6-7.88l11.29-23-15.09-9.72-16.14,20.17q-5.55-2.81-11.32-5.11l4.94-25.11Z" transform="translate(0 0)"/><path class="cls-4" d="M2975.84,1358.23l-6.43.42.77,12.33a148.12,148.12,0,0,0-30.74,5.94l-3.92-11.62-6.16,2,4,11.76a145.65,145.65,0,0,0-28.21,13.65l-6.79-10.21-5.39,3.56,6.86,10.29a143.94,143.94,0,0,0-23.6,20.59l-9.31-8.19-4.27,4.83,9.24,8.19a142.26,142.26,0,0,0-17.57,26l-11-5.46-2.87,5.81,11.13,5.46a144.29,144.29,0,0,0-10.15,29.68l-12.18-2.44-1.26,6.3,12,2.44c-.61,3.46-1.05,7-1.4,10.44h15.57A129,129,0,0,1,3000,1387.15v-15.67a147.23,147.23,0,0,0-23.39-.93Z" transform="translate(0 0)"/><path class="cls-4" d="M2968.42,1386.66c-1,.14-2,.35-2.94.49l12.74,105.15c-1,.21-2,.49-3,.77l-39.48-98.22c-.91.28-1.82.63-2.73,1l39.48,98.35a13.1,13.1,0,0,0-2.73,1.55L2906.18,1411c-.77.63-1.53,1.19-2.3,1.82l63.49,84.7a21.25,21.25,0,0,0-2.17,2.18l-83.38-65.39a28.1,28.1,0,0,0-1.81,2.24l80.81,63.5H2978a14.15,14.15,0,0,1,8.79,0H3000a21.25,21.25,0,0,0-2.18-2.17l2.18-2.78v-4.83l-4.48,5.72c-.84-.56-1.75-1-2.66-1.54l7.14-16.75v-7.51l-9.87,23.14c-1-.35-2-.63-3-.91l12.88-90.1v-15l-.84-.12L2984.25,1492a17.44,17.44,0,0,0-1.82-.14c-.42,0-.91.07-1.33.07Zm-104,76.38c-.42.91-.77,1.82-1.19,2.73l80.24,34.23H2951Zm-9.45,32.34c-.14,1-.28,2-.42,2.87l12.25,1.75h20.51Z" transform="translate(0 0)"/><path class="cls-4" d="M2838.63,0a146.7,146.7,0,0,0-.7,20.86l-12.32.77.42,6.44,12.32-.77a143.82,143.82,0,0,0,6,30.74L2832.68,62l2,6.16,11.69-4a150.11,150.11,0,0,0,13.72,28.21l-10.22,6.79,3.57,5.39,10.29-6.86a143.81,143.81,0,0,0,20.58,23.59l-8.18,9.31,4.82,4.27,8.2-9.24a142.31,142.31,0,0,0,26,17.58l-5.46,11,5.81,2.87,5.46-11.14A144.29,144.29,0,0,0,2950.64,156l-2.45,12.18,6.3,1.26,2.45-12a146.28,146.28,0,0,0,31.3,2.11l.77,12.32,6.44-.42-.77-12.32c1.78-.16,3.55-.39,5.32-.6V143a129.2,129.2,0,0,1-125.18-56.55A128.6,128.6,0,0,1,2854.2,0Z" transform="translate(0 0)"/><path class="cls-4" d="M2866.77,0l92.62,13.23a15.93,15.93,0,0,0-.14,1.82c0,.42.07.85.07,1.34L2854.1,29.06c.14,1,.28,2,.42,2.86l105.15-12.67a21.21,21.21,0,0,0,.84,3l-98.29,39.49,1.05,2.73L2961.56,25a17.31,17.31,0,0,0,1.54,2.74l-84.71,63.56c.56.77,1.19,1.54,1.75,2.31L2964.85,30a23.1,23.1,0,0,0,2.17,2.24l-65.39,83.38c.77.63,1.48,1.27,2.25,1.83l65.45-83.38a20.68,20.68,0,0,0,2.66,1.61l-41.58,97.37c.91.35,1.82.77,2.73,1.13l41.58-97.38a21.19,21.19,0,0,0,3,.83l-15,104.88c1,.14,2,.28,2.94.35l14.91-104.8a15.82,15.82,0,0,0,1.82.07h1.33l12.67,105.23,2.95-.43L2986.62,37.82a21.24,21.24,0,0,0,3-.85L3000,62.77V54.92l-7.63-19a17.2,17.2,0,0,0,2.73-1.54l4.9,6.53V36l-2.52-3.36c.77-.7,1.47-1.4,2.17-2.17l.35.28V0h-13.18a15.75,15.75,0,1,1-8.8,0h-17.2l2.49,2c-.56.84-1,1.76-1.54,2.67L2951,0h-7.52l17.22,7.34c-.35,1-.63,2-.91,3L2887.28,0Z" transform="translate(0 0)"/><path class="cls-4" d="M1510.36,1360.61l-2.45,12q-3.93-.69-7.91-1.17v15.67A129,129,0,0,1,1610.67,1500h15.52a147.78,147.78,0,0,0-5.64-27.93l11.62-3.92-2-6.16-11.77,4a142,142,0,0,0-13.72-28.21L1615,1431l-3.57-5.39-10.29,6.86a144.23,144.23,0,0,0-20.65-23.59l8.19-9.32-4.83-4.27-8.12,9.25a145.13,145.13,0,0,0-26-17.57l5.47-11-5.82-2.87-5.53,11.13a142.28,142.28,0,0,0-29.61-10.15l2.45-12.18Z" transform="translate(0 0)"/><path class="cls-4" d="M1500,1387.27v15l2.1-14.7Zm31.72,8.56L1500,1470.14v7.51l34.37-80.64C1533.53,1396.6,1532.63,1396.25,1531.72,1395.83Zm29.19,16.8L1500,1490.22v4.84l63.22-80.61C1562.45,1413.82,1561.68,1413.19,1560.91,1412.63Zm23.8,23.87L1500,1500h4.92l81.54-61.19C1585.9,1438,1585.27,1437.27,1584.71,1436.5Zm16.87,29.13L1516,1500h7.85l78.78-31.65Zm8.75,32.48-15.6,1.89h15.87C1610.52,1499.37,1610.42,1498.74,1610.33,1498.11Z" transform="translate(0 0)"/><path class="cls-2" d="M2333.54,2658.71a3,3,0,0,0-2.15,3.73l6.71,25a127.07,127.07,0,0,0-32.83,18.95l-18.33-18.33a3.05,3.05,0,0,0-3-.77,3.24,3.24,0,0,0-1.29.77L2267,2703.75a3,3,0,0,0,0,4.31l18.39,18.39a126.49,126.49,0,0,0-18.93,32.79l-25.12-6.73a2.73,2.73,0,0,0-1.5,0,3,3,0,0,0-2.23,2.18l-5.73,21.38a3,3,0,0,0,2.15,3.73l25.13,6.73a127.11,127.11,0,0,0,0,37.86L2234,2831.1a3,3,0,0,0-2.15,3.73l5.73,21.38a3,3,0,0,0,3.73,2.15l25-6.71a127.07,127.07,0,0,0,18.95,32.83L2267,2902.81a3,3,0,0,0,0,4.31l15.65,15.65a3,3,0,0,0,4.31,0l18.39-18.39a126.49,126.49,0,0,0,32.79,18.93l-6.73,25.12a3,3,0,0,0,2.15,3.73l21.38,5.73a3.05,3.05,0,0,0,3.73-2.15l6.73-25.13a127.11,127.11,0,0,0,37.86,0l6.73,25.13a3,3,0,0,0,3.73,2.15l21.38-5.73a3,3,0,0,0,2.16-3.73l-6.71-25a127,127,0,0,0,32.82-18.95l18.33,18.33a3,3,0,0,0,4.31,0l15.65-15.65a3,3,0,0,0,0-4.31l-18.39-18.39a126.49,126.49,0,0,0,18.93-32.79l25.12,6.73a3,3,0,0,0,3.73-2.15l5.73-21.38a3,3,0,0,0-2.15-3.73l-25.13-6.73a127.11,127.11,0,0,0,0-37.86l25.13-6.73a3,3,0,0,0,2.15-3.73l-5.73-21.38a3,3,0,0,0-3.73-2.16l-25,6.71a127,127,0,0,0-19-32.82l18.33-18.33a3,3,0,0,0,0-4.31L2486,2688.11a3,3,0,0,0-3-.77,3.13,3.13,0,0,0-1.29.77l-18.39,18.39a126.49,126.49,0,0,0-32.79-18.93l6.73-25.12a3,3,0,0,0-2.15-3.73L2413.7,2653a2.83,2.83,0,0,0-1.5,0,3,3,0,0,0-2.23,2.17l-6.73,25.13a126.45,126.45,0,0,0-37.86,0l-6.73-25.13a3,3,0,0,0-3.73-2.15Zm28.86,65a84,84,0,0,1,8.27-1.78,84.61,84.61,0,0,1,86.57,40.56h0q2.15,3.65,3.92,7.49h0a82.81,82.81,0,0,1,3.16,7.84c.66,1.89,1.24,3.8,1.76,5.73q1.1,4.09,1.78,8.28a84.64,84.64,0,0,1-55.91,93.64c-1.89.66-3.8,1.24-5.73,1.76q-4.09,1.1-8.27,1.78a84.67,84.67,0,0,1-86.56-40.57,82.11,82.11,0,0,1-3.93-7.49h0a84.62,84.62,0,0,1-3.16-7.85h0q-1-2.84-1.76-5.73a83.31,83.31,0,0,1-1.77-8.27,84.61,84.61,0,0,1,61.63-95.4Z" transform="translate(0 0)"/><path class="cls-3" d="M2384.31,2711.28a94.16,94.16,0,1,0,94.16,94.15A94.15,94.15,0,0,0,2384.31,2711.28Zm0,9.5a84.65,84.65,0,1,1-84.65,84.65A84.65,84.65,0,0,1,2384.31,2720.78Z" transform="translate(0 0)"/><path class="cls-4" d="M1873,1630.73a4.54,4.54,0,0,0-5.15,3.79l-2.86,20.37a165.53,165.53,0,0,0-52.24,6.5l-7.72-19.22a4.7,4.7,0,0,0-3.72-2.79,5,5,0,0,0-2.22.29l-22.44,9.07a4.47,4.47,0,0,0-2.5,5.86l7.72,19.23a165.2,165.2,0,0,0-42,31.67l-16.3-12.8a4.87,4.87,0,0,0-2.07-.93,4.64,4.64,0,0,0-4.29,1.72l-14.94,19.08a4.4,4.4,0,0,0,.79,6.29l16.3,12.8a164.36,164.36,0,0,0-20.59,48.39l-20.51-2.86a4.54,4.54,0,0,0-5.15,3.79l-3.36,24a4.54,4.54,0,0,0,3.79,5.15l20.37,2.86a165.35,165.35,0,0,0,6.51,52.25l-19.23,7.71a4.54,4.54,0,0,0-2.5,5.87l9.07,22.51a4.54,4.54,0,0,0,5.87,2.5l19.22-7.72a164.86,164.86,0,0,0,31.67,42l-12.8,16.37a4.48,4.48,0,0,0,.79,6.36l19.08,14.94a4.46,4.46,0,0,0,6.29-.79l12.8-16.37a164.53,164.53,0,0,0,48.39,20.66l-2.86,20.51a4.43,4.43,0,0,0,3.78,5.08l24,3.43a4.54,4.54,0,0,0,5.15-3.86l2.86-20.3a165.35,165.35,0,0,0,52.25-6.51l7.71,19.16a4.48,4.48,0,0,0,5.87,2.5l22.51-9a4.62,4.62,0,0,0,2.5-5.94l-7.72-19.15a166.49,166.49,0,0,0,42-31.67l16.37,12.8a4.54,4.54,0,0,0,6.36-.79l14.94-19.08a4.54,4.54,0,0,0-.79-6.36l-16.37-12.8a162.86,162.86,0,0,0,20.66-48.39l20.51,2.93a4.43,4.43,0,0,0,5.08-3.86l3.43-23.94a4.54,4.54,0,0,0-3.86-5.15L2023,1826a163.24,163.24,0,0,0-6.44-52.24l19.16-7.72a4.53,4.53,0,0,0,2.5-5.94l-9-22.44a4.46,4.46,0,0,0-3.72-2.79,4,4,0,0,0-2.22.29l-19.15,7.72a166.84,166.84,0,0,0-31.67-42l12.8-16.3a4.54,4.54,0,0,0-.79-6.36l-19.08-14.94a4.65,4.65,0,0,0-2-.92,4.51,4.51,0,0,0-4.36,1.71l-12.8,16.3a162.8,162.8,0,0,0-48.39-20.59l2.93-20.51a4.54,4.54,0,0,0-3.86-5.15Zm3.14,64a126,126,0,1,1-142.38,107.07A126,126,0,0,1,1876.15,1694.77Z" transform="translate(0 0)"/><path class="cls-4" d="M1894.65,2539.75a3.14,3.14,0,0,0-2.45,3.72l2.64,13.9a79.72,79.72,0,0,0-30.15,19.78l-11.65-7.93a2.88,2.88,0,0,0-2.35-.49,3,3,0,0,0-2,1.27l-11.75,17.43a3.13,3.13,0,0,0,.78,4.4l11.75,7.93A81.1,81.1,0,0,0,1842,2635l-13.71,2.65a3.18,3.18,0,0,0-2.54,3.72l3.92,20.65a3.26,3.26,0,0,0,3.72,2.55l13.9-2.65a80,80,0,0,0,19.77,30l-7.93,11.65a3.24,3.24,0,0,0,.78,4.41l17.43,11.84a3.15,3.15,0,0,0,4.4-.88l7.93-11.65a79.82,79.82,0,0,0,35.25,7.35l2.64,13.8a3.25,3.25,0,0,0,3.72,2.54l20.66-4a3.11,3.11,0,0,0,2.54-3.62l-2.64-13.9a80.13,80.13,0,0,0,30-19.78l11.65,7.93a3.15,3.15,0,0,0,4.4-.88l11.85-17.43a3.2,3.2,0,0,0-.88-4.4l-11.65-7.93a79.48,79.48,0,0,0,7.34-35.24l13.8-2.65a3.16,3.16,0,0,0,2.55-3.72l-4-20.65a3,3,0,0,0-3.62-2.45l-13.9,2.64a79.7,79.7,0,0,0-19.77-30.15l7.93-11.65a3.17,3.17,0,0,0-.89-4.4L1969.24,2547a2.9,2.9,0,0,0-2.35-.49,3.35,3.35,0,0,0-2.06,1.27l-7.93,11.75a80.94,80.94,0,0,0-35.24-7.44l-2.64-13.7a3.09,3.09,0,0,0-3.72-2.55Zm20.26,49.63a44.85,44.85,0,1,1-35.63,52.48A44.83,44.83,0,0,1,1914.91,2589.38Z" transform="translate(0 0)"/><path class="cls-4" d="M2264.5,1982.25l-29.52.4-4.21,40.94q-10.23.9-20.35,2.73l-14.79-38.76-28.61,7.25,6.14,41.76q-9.67,3.59-19,8l-24.54-33.93-25.76,14.41,16.87,39.08q-8.37,5.87-16.18,12.48l-32.68-26.58-21.15,20.59,26.37,33.32q-6.54,7.84-12.36,16.27l-38.42-17.2-15.1,25.35,34.35,25.56q-4.27,9.2-7.72,18.75l-41.8-6.71-8,28.4,39.72,15.77c-1.21,6.65-2.12,13.36-2.74,20.09l-42.35,4.37-.41,29.51,42.71,5q.81,10.13,2.51,20.17l-39.54,15.08,7.24,28.61,42.42-6.23q3.47,9.57,7.76,18.8L2011,2370.36l14.41,25.76,39.14-16.9q5.79,8.43,12.33,16.31l-26.49,32.57,20.58,21.16,33-26.12q7.89,6.66,16.36,12.6l-17,37.92,25.36,15.11,25-33.62q9.38,4.45,19.12,8.06l-6.54,40.73,28.41,8,15.24-38.41q10.32,2,20.78,3l4.2,40.83,29.52.41,4.77-41q10.71-.8,21.31-2.62l15,37.9,28.4-8-6.39-39.82q10-3.57,19.68-8.07l24.32,32.7,25.35-15.11-16.39-36.6q8.84-6.08,17.06-13l31.74,25.12,20.58-21.15-25-30.81q7-8.25,13.15-17.13l36.91,15.94,14.4-25.77L2457.1,2347q4.59-9.75,8.25-19.9l39.93,5.86,7.24-28.61-37.18-14.18q1.93-10.66,2.85-21.46l39.56-4.61-.41-29.51-39.19-4q-.9-10.8-2.84-21.47l37.11-14.73-8-28.4-39.16,6.29q-3.7-10.12-8.35-19.86l32.32-24L2474.09,2103l-36.53,16.36q-6.15-8.77-13.1-16.92l25.2-31.85L2428.51,2050l-31.15,25.32q-8.19-6.85-17-12.92l16.15-37.41-25.76-14.4-23.89,33q-9.57-4.41-19.53-7.92l6-41-28.61-7.25-14.68,38.5c-6.88-1.19-13.82-2.07-20.78-2.63Zm-12.92,239.28a28.47,28.47,0,1,1-28.47,28.47A28.47,28.47,0,0,1,2251.58,2221.53Z" transform="translate(0 0)"/><path class="cls-4" d="M2965.36,2186.07l-3.92,25.69q-6.15.28-12.28,1.12l-8.36-24.5-17.54,3.79,2.88,26q-5.89,1.86-11.61,4.25L2900.2,2201l-16,8.2,9.48,24.28q-5.2,3.36-10.08,7.16l-19.38-16.94L2851,2235.77l15.35,20.88q-4.2,4.59-8,9.54l-22.91-11.25L2825.7,2270l20,16q-2.88,5.58-5.24,11.41l-24.78-4.88-5.49,17.08,23.34,10.23q-1.38,6.17-2.17,12.43l-25,1.69-.89,17.92,24.84,3.78q.26,6.38,1.09,12.71l-23.62,8.07,3.79,17.54,24.91-2.76c1.3,4.15,2.79,8.25,4.47,12.26l-20.4,14.08,8.64,15.73,22.71-9.22q3.48,5.45,7.46,10.56l-16,18.87,12.4,13,19.45-14.7q4.8,4.39,10,8.33l-10.55,22.23,15.34,9.31,14.84-19q5.84,3,11.93,5.46l-4.4,24,17.23,5,9.43-22.31q6.4,1.39,12.92,2.17l2,24.46,17.94.41,3.33-24q6.57-.32,13.1-1.24l8.13,22.8,3.66-.89v-96.14a39.63,39.63,0,0,1,0-37.66v-56.5a39.85,39.85,0,0,1-.12-77.7l.12,0v-32.3l-2.83,6.45q-6-1.29-12.16-2l-1.73-25.68Zm-65.2,78.24a39.91,39.91,0,1,1-7.9,1A39.87,39.87,0,0,1,2900.16,2264.31Zm67.77,68.19a17.27,17.27,0,1,1-3.43.43A17.13,17.13,0,0,1,2967.93,2332.5Zm-41.48,46a39.86,39.86,0,1,1-7.9,1A39.87,39.87,0,0,1,2926.45,2378.47Z" transform="translate(0 0)"/><path class="cls-4" d="M2543.3,1876.11a2.16,2.16,0,0,0-1.69,2.56l1.82,9.59a55,55,0,0,0-20.79,13.64l-8-5.47a2,2,0,0,0-1.62-.34,2.09,2.09,0,0,0-1.41.88l-8.11,12a2.18,2.18,0,0,0,.54,3l8.11,5.46a56.1,56.1,0,0,0-5.14,24.31l-9.45,1.82a2.2,2.2,0,0,0-1.75,2.57l2.7,14.24a2.25,2.25,0,0,0,2.56,1.76l9.59-1.82a55.08,55.08,0,0,0,13.64,20.72l-5.47,8a2.23,2.23,0,0,0,.54,3l12,8.17a2.19,2.19,0,0,0,3-.61l5.47-8a55,55,0,0,0,24.3,5.07l1.83,9.52a2.24,2.24,0,0,0,2.56,1.75l14.25-2.77a2.13,2.13,0,0,0,1.75-2.49l-1.82-9.59a55.32,55.32,0,0,0,20.73-13.64l8,5.47a2.19,2.19,0,0,0,3-.61l8.17-12a2.22,2.22,0,0,0-.61-3l-8-5.47a54.79,54.79,0,0,0,5.06-24.3l9.52-1.83a2.17,2.17,0,0,0,1.76-2.56l-2.77-14.25a2.1,2.1,0,0,0-2.5-1.69l-9.59,1.83a54.91,54.91,0,0,0-13.64-20.8l5.47-8a2.17,2.17,0,0,0-.61-3l-12-8.1a2,2,0,0,0-1.62-.34,2.28,2.28,0,0,0-1.42.88l-5.47,8.1a55.71,55.71,0,0,0-24.31-5.13l-1.82-9.45a2.12,2.12,0,0,0-2.56-1.76Zm14,34.23a30.93,30.93,0,1,1-24.58,36.19A30.92,30.92,0,0,1,2557.28,1910.34Z" transform="translate(0 0)"/><path class="cls-4" d="M1610.67,1500A129.19,129.19,0,0,1,1500,1643v15.52a147.05,147.05,0,0,0,25.41-5.36l3.92,11.63,6.09-2L1531.5,1651a142.3,142.3,0,0,0,28.22-13.71l6.79,10.29,5.39-3.58-6.87-10.29a143.82,143.82,0,0,0,23.6-20.65l9.31,8.19,4.27-4.83-9.24-8.12a144.42,144.42,0,0,0,17.57-26l11,5.47,2.87-5.81-11.13-5.54a142.28,142.28,0,0,0,10.15-29.61l12.18,2.46,1.26-6.3-12-2.46a146.18,146.18,0,0,0,2.1-31.29l12.32-.77-.41-6.44-12.32.77c-.09-.94-.22-1.87-.32-2.8Z" transform="translate(0 0)"/><path class="cls-4" d="M1500,1500v30.73l83,65.11c.63-.77,1.25-1.54,1.81-2.31l-83.3-65.39c.56-.84,1-1.75,1.54-2.66l97.38,41.52c.42-.85.77-1.75,1.19-2.66l-97.45-41.59c.35-1,.63-2,.91-3l104.8,15,.42-2.94-104.87-14.9a17.54,17.54,0,0,0,.15-1.83,7.31,7.31,0,0,1-.08-1.32l105.22-12.68c0-.35-.1-.7-.14-1h-15.87l-89.56,10.86a21.21,21.21,0,0,0-.84-3l19.53-7.85H1516l-12.73,5.11a17.16,17.16,0,0,0-1.53-2.73l3.17-2.38Zm0,36v4.93l58.67,78.18c.77-.56,1.54-1.2,2.31-1.76Zm0,18.93v7.85l29.12,72.5,2.73-1.06Z" transform="translate(0 0)"/><path class="cls-4" d="M1507.63,2190.81l-7.63,17.4v32.3a39.87,39.87,0,1,1,0,77.72v56.49a39.86,39.86,0,1,1,0,37.67v96.13l13.77-3.37-3-23.77q6.27-2,12.34-4.61l13.79,20,15.72-8.64-9.07-22.34q5.49-3.57,10.63-7.65l18.65,15.86,13-12.41-14.68-19.41q4.35-4.85,8.24-10.07l22.31,10.59,9.3-15.35-19.26-15q3-5.79,5.34-11.84l24.36,4.47,5-17.23-22.83-9.65q1.3-6.27,2-12.64l25.11-2,.4-17.94-24.81-3.45q-.34-6.36-1.27-12.66l23.67-8.46-4.26-17.44-24.83,3.1q-1.93-5.94-4.4-11.69l21-14-8.2-16-23.9,9.33q-3.45-5.24-7.35-10.15l16.75-19.17-12-13.29-20.85,15.32q-4.62-4.14-9.6-7.88l11.29-23-15.09-9.73-16.14,20.17q-5.55-2.8-11.32-5.1l4.94-25.11Z" transform="translate(0 0)"/><path class="cls-4" d="M2975.84,2858.23l-6.43.42.77,12.33a148.12,148.12,0,0,0-30.74,5.94l-3.92-11.62-6.16,2,4,11.76a145.65,145.65,0,0,0-28.21,13.65l-6.79-10.21-5.39,3.56,6.86,10.29a143.88,143.88,0,0,0-23.6,20.58l-9.31-8.18-4.27,4.83,9.24,8.19a142.26,142.26,0,0,0-17.57,26l-11-5.46-2.87,5.81,11.13,5.46a144.29,144.29,0,0,0-10.15,29.68l-12.18-2.44-1.26,6.3,12,2.44c-.61,3.46-1.05,6.94-1.4,10.44h15.57A129,129,0,0,1,3000,2887.15v-15.67a147.23,147.23,0,0,0-23.39-.93Z" transform="translate(0 0)"/><path class="cls-4" d="M2968.42,2886.66c-1,.14-2,.35-2.94.49l12.74,105.14c-1,.21-2,.49-3,.77l-39.48-98.21c-.91.28-1.82.63-2.73,1l39.48,98.35a13.1,13.1,0,0,0-2.73,1.55L2906.18,2911c-.77.63-1.53,1.19-2.3,1.82l63.49,84.7a21.25,21.25,0,0,0-2.17,2.18l-83.38-65.39a28.1,28.1,0,0,0-1.81,2.24l80.81,63.5H2978a14.15,14.15,0,0,1,8.79,0H3000a21.36,21.36,0,0,0-2.18-2.18l2.18-2.77v-4.83l-4.48,5.72c-.84-.56-1.75-1.05-2.66-1.54l7.14-16.75v-7.51l-9.87,23.14c-1-.35-2-.63-3-.91l12.88-90.11v-15l-.84-.11L2984.25,2992a17.44,17.44,0,0,0-1.82-.14c-.42,0-.91.07-1.33.07Zm-104,76.37c-.42.91-.77,1.83-1.19,2.74l80.24,34.23H2951Zm-9.45,32.35c-.14,1-.28,2-.42,2.87l12.25,1.75h20.51Z" transform="translate(0 0)"/><path class="cls-4" d="M2838.63,1500a146.6,146.6,0,0,0-.7,20.86l-12.32.77.42,6.44,12.32-.77a143.82,143.82,0,0,0,6,30.74l-11.62,3.92,2,6.16,11.69-4a149.89,149.89,0,0,0,13.72,28.22l-10.22,6.79,3.57,5.39,10.29-6.86a143.81,143.81,0,0,0,20.58,23.59l-8.18,9.31,4.82,4.27,8.2-9.24a142.31,142.31,0,0,0,26,17.58l-5.46,11,5.81,2.87,5.46-11.13a144.29,144.29,0,0,0,29.68,10.15l-2.45,12.18,6.3,1.26,2.45-12a146.28,146.28,0,0,0,31.3,2.1l.77,12.32,6.44-.41-.77-12.32c1.78-.16,3.55-.39,5.32-.6V1643a129.1,129.1,0,0,1-145.8-143Z" transform="translate(0 0)"/><path class="cls-4" d="M2866.77,1500l92.62,13.23a15.93,15.93,0,0,0-.14,1.82c0,.42.07.85.07,1.34l-105.22,12.67c.14,1,.28,2,.42,2.86l105.15-12.67a21.21,21.21,0,0,0,.84,3l-98.29,39.48,1.05,2.74,98.29-39.49a17.2,17.2,0,0,0,1.54,2.73l-84.71,63.57c.56.77,1.19,1.54,1.75,2.31l84.71-63.57a23.1,23.1,0,0,0,2.17,2.24l-65.39,83.38c.77.63,1.48,1.26,2.25,1.82l65.45-83.37a20.68,20.68,0,0,0,2.66,1.61l-41.58,97.37c.91.35,1.82.77,2.73,1.12l41.58-97.37a21.19,21.19,0,0,0,3,.83l-15,104.88c1,.14,2,.28,2.94.35l14.91-104.8a15.82,15.82,0,0,0,1.82.07h1.33l12.67,105.23,2.95-.43-12.75-105.15a21.21,21.21,0,0,0,3-.84l10.37,25.8v-7.85l-7.63-19a17.2,17.2,0,0,0,2.73-1.54l4.9,6.53V1536l-2.52-3.36c.77-.7,1.47-1.4,2.17-2.17l.35.28V1500h-13.18a15.75,15.75,0,1,1-8.8,0h-17.2l2.49,2c-.56.84-1,1.76-1.54,2.67L2951,1500h-7.52l17.22,7.34c-.35,1-.63,2-.91,3L2887.28,1500Z" transform="translate(0 0)"/><path class="cls-4" d="M1510.36,2860.61l-2.45,12q-3.93-.69-7.91-1.17v15.67A129,129,0,0,1,1610.67,3000h15.52a148,148,0,0,0-5.64-27.94l11.62-3.91-2-6.16-11.77,4a142,142,0,0,0-13.72-28.21L1615,2931l-3.57-5.39-10.29,6.86a144.23,144.23,0,0,0-20.65-23.59l8.19-9.32-4.83-4.27-8.12,9.25a145.19,145.19,0,0,0-26-17.58l5.47-11-5.82-2.87-5.53,11.13a142.28,142.28,0,0,0-29.61-10.15l2.45-12.18Z" transform="translate(0 0)"/><path class="cls-4" d="M1500,2887.26v15l2.1-14.69Zm31.72,8.57L1500,2970.14v7.51l34.37-80.64C1533.53,2896.59,1532.63,2896.25,1531.72,2895.83Zm29.19,16.8L1500,2990.22v4.84l63.22-80.62C1562.45,2913.81,1561.68,2913.19,1560.91,2912.63Zm23.8,23.87L1500,3000h4.92l81.54-61.19C1585.9,2938,1585.27,2937.27,1584.71,2936.5Zm16.87,29.13L1516,3000h7.85l78.78-31.65Zm8.75,32.48-15.6,1.89h15.87C1610.52,2999.37,1610.42,2998.74,1610.33,2998.11Z" transform="translate(0 0)"/><path class="cls-2" d="M833.54,2658.71a3,3,0,0,0-2.15,3.73l6.71,25a126.85,126.85,0,0,0-32.82,18.95l-18.34-18.33a3.05,3.05,0,0,0-3-.77,3.14,3.14,0,0,0-1.28.77L767,2703.75a3,3,0,0,0,0,4.31l18.39,18.39a126.49,126.49,0,0,0-18.93,32.79l-25.12-6.73a2.73,2.73,0,0,0-1.5,0,3,3,0,0,0-2.23,2.18l-5.73,21.38a3,3,0,0,0,2.16,3.73l25.12,6.73a127.11,127.11,0,0,0,0,37.86L734,2831.1a3,3,0,0,0-2.16,3.73l5.73,21.38a3,3,0,0,0,3.73,2.15l25-6.71a126.82,126.82,0,0,0,19,32.83L767,2902.81a3,3,0,0,0,0,4.31l15.66,15.65a3,3,0,0,0,4.3,0l18.39-18.39a126.49,126.49,0,0,0,32.79,18.93l-6.73,25.12a3,3,0,0,0,2.15,3.73l21.38,5.73a3,3,0,0,0,3.73-2.15l6.73-25.13a127.11,127.11,0,0,0,37.86,0l6.73,25.13a3,3,0,0,0,3.73,2.15l21.38-5.73a3,3,0,0,0,2.16-3.73l-6.71-25a127,127,0,0,0,32.82-18.95l18.33,18.33a3,3,0,0,0,4.31,0l15.65-15.65a3,3,0,0,0,0-4.31l-18.39-18.39a126.49,126.49,0,0,0,18.93-32.79l25.12,6.73a3,3,0,0,0,3.73-2.15l5.73-21.38a3,3,0,0,0-2.15-3.73l-25.13-6.73a126.45,126.45,0,0,0,0-37.86l25.13-6.73a3,3,0,0,0,2.15-3.73l-5.73-21.38a3,3,0,0,0-3.73-2.16l-25,6.71a126.44,126.44,0,0,0-19-32.82l18.33-18.33a3,3,0,0,0,0-4.31L986,2688.11a3,3,0,0,0-3-.77,3.13,3.13,0,0,0-1.29.77l-18.39,18.39a126.59,126.59,0,0,0-32.78-18.93l6.73-25.12a3,3,0,0,0-2.16-3.73L913.7,2653a2.83,2.83,0,0,0-1.5,0,3,3,0,0,0-2.23,2.17l-6.73,25.13a126.45,126.45,0,0,0-37.86,0l-6.73-25.13a3,3,0,0,0-3.73-2.15Zm28.86,65a83.55,83.55,0,0,1,8.28-1.78,84.6,84.6,0,0,1,86.56,40.56h0q2.14,3.65,3.93,7.49h0c1.18,2.56,2.23,5.18,3.15,7.84.66,1.89,1.24,3.8,1.76,5.73q1.09,4.09,1.78,8.28A84.6,84.6,0,0,1,912,2885.44c-1.89.66-3.8,1.24-5.73,1.76q-4.08,1.1-8.27,1.78a84.67,84.67,0,0,1-86.56-40.57,82.11,82.11,0,0,1-3.93-7.49h0a84.62,84.62,0,0,1-3.16-7.85h0c-.65-1.89-1.24-3.8-1.75-5.73a83.35,83.35,0,0,1-1.78-8.27,84.61,84.61,0,0,1,61.63-95.4Z" transform="translate(0 0)"/><path class="cls-3" d="M884.31,2711.28a94.16,94.16,0,1,0,94.16,94.15A94.15,94.15,0,0,0,884.31,2711.28Zm0,9.5a84.65,84.65,0,1,1-84.65,84.65A84.65,84.65,0,0,1,884.31,2720.78Z" transform="translate(0 0)"/><path class="cls-4" d="M373,1630.73a4.54,4.54,0,0,0-5.15,3.79L365,1654.89a165.59,165.59,0,0,0-52.25,6.5L305,1642.17a4.7,4.7,0,0,0-3.72-2.79,5,5,0,0,0-2.22.29l-22.44,9.07a4.47,4.47,0,0,0-2.5,5.86l7.72,19.23a165.2,165.2,0,0,0-42,31.67l-16.3-12.8a4.82,4.82,0,0,0-2.07-.93,4.65,4.65,0,0,0-4.29,1.72l-14.94,19.08a4.4,4.4,0,0,0,.79,6.29l16.3,12.8a164.36,164.36,0,0,0-20.59,48.39l-20.51-2.86a4.54,4.54,0,0,0-5.15,3.79l-3.36,24a4.54,4.54,0,0,0,3.79,5.15l20.37,2.86a165.35,165.35,0,0,0,6.51,52.25L181.17,1873a4.54,4.54,0,0,0-2.5,5.87l9.08,22.51a4.52,4.52,0,0,0,5.86,2.5l19.22-7.72a164.86,164.86,0,0,0,31.67,42l-12.8,16.37a4.48,4.48,0,0,0,.79,6.36l19.08,14.94a4.46,4.46,0,0,0,6.29-.79l12.8-16.37a164.53,164.53,0,0,0,48.39,20.66l-2.86,20.51a4.43,4.43,0,0,0,3.79,5.08l24,3.43a4.54,4.54,0,0,0,5.15-3.86l2.86-20.3a165.35,165.35,0,0,0,52.25-6.51l7.72,19.16a4.46,4.46,0,0,0,5.86,2.5l22.51-9a4.62,4.62,0,0,0,2.5-5.94l-7.72-19.15a166.31,166.31,0,0,0,42-31.67l16.37,12.8a4.54,4.54,0,0,0,6.36-.79l14.94-19.08a4.54,4.54,0,0,0-.79-6.36l-16.37-12.8a162.86,162.86,0,0,0,20.66-48.39l20.51,2.93a4.43,4.43,0,0,0,5.08-3.86l3.43-23.94a4.54,4.54,0,0,0-3.86-5.15L523,1826a163.52,163.52,0,0,0-6.43-52.24l19.15-7.72a4.53,4.53,0,0,0,2.5-5.94l-9-22.44a4.46,4.46,0,0,0-3.72-2.79,4,4,0,0,0-2.21.29l-19.16,7.72a167,167,0,0,0-31.66-42l12.79-16.3a4.54,4.54,0,0,0-.79-6.36l-19.08-14.94a4.6,4.6,0,0,0-2-.92,4.51,4.51,0,0,0-4.36,1.71l-12.8,16.3a162.69,162.69,0,0,0-48.39-20.59l2.93-20.51a4.53,4.53,0,0,0-3.86-5.15Zm3.15,64a126,126,0,1,1-142.38,107.07A126,126,0,0,1,376.16,1694.77Z" transform="translate(0 0)"/><path class="cls-4" d="M394.65,2539.75a3.14,3.14,0,0,0-2.45,3.72l2.64,13.9a79.72,79.72,0,0,0-30.15,19.78L353,2569.22a2.88,2.88,0,0,0-2.35-.49,3,3,0,0,0-2.05,1.27l-11.75,17.43a3.14,3.14,0,0,0,.78,4.4l11.75,7.93A81.25,81.25,0,0,0,342,2635l-13.7,2.65a3.17,3.17,0,0,0-2.55,3.72l3.92,20.65a3.26,3.26,0,0,0,3.72,2.55l13.9-2.65A80,80,0,0,0,367,2692l-7.93,11.65a3.24,3.24,0,0,0,.79,4.41l17.42,11.84a3.17,3.17,0,0,0,4.41-.88l7.93-11.65a79.75,79.75,0,0,0,35.24,7.35l2.64,13.8a3.25,3.25,0,0,0,3.72,2.54l20.66-4a3.1,3.1,0,0,0,2.54-3.62l-2.64-13.9a80.13,80.13,0,0,0,30.05-19.78l11.65,7.93a3.17,3.17,0,0,0,4.41-.88l11.84-17.43a3.19,3.19,0,0,0-.88-4.4L497.24,2667a79.35,79.35,0,0,0,7.34-35.24l13.81-2.65a3.15,3.15,0,0,0,2.54-3.72l-4-20.65a3,3,0,0,0-3.63-2.45l-13.9,2.64a79.7,79.7,0,0,0-19.77-30.15l7.93-11.65a3.15,3.15,0,0,0-.88-4.4L469.24,2547a2.88,2.88,0,0,0-2.35-.49,3.3,3.3,0,0,0-2.05,1.27l-7.93,11.75a81,81,0,0,0-35.25-7.44l-2.64-13.7a3.09,3.09,0,0,0-3.72-2.55Zm20.26,49.63a44.85,44.85,0,1,1-35.63,52.48A44.85,44.85,0,0,1,414.91,2589.38Z" transform="translate(0 0)"/><path class="cls-4" d="M764.5,1982.25l-29.52.4-4.21,40.94q-10.23.9-20.35,2.73l-14.78-38.76L667,1994.81l6.14,41.76q-9.66,3.59-19,8l-24.54-33.93-25.76,14.41,16.87,39.08q-8.36,5.87-16.18,12.48l-32.67-26.58-21.16,20.59L577.11,2104q-6.54,7.84-12.36,16.27L526.34,2103l-15.11,25.35L545.58,2154q-4.27,9.2-7.72,18.75l-41.8-6.71-8,28.4,39.73,15.77c-1.22,6.65-2.13,13.36-2.74,20.09l-42.36,4.37-.41,29.51,42.71,5q.81,10.13,2.52,20.17l-39.55,15.08,7.24,28.61,42.43-6.23q3.45,9.57,7.75,18.8L511,2370.36l14.41,25.76,39.14-16.9q5.79,8.43,12.33,16.31l-26.49,32.57L571,2449.26l33-26.12q7.89,6.66,16.36,12.6l-17,37.92,25.36,15.11,25-33.62q9.36,4.45,19.12,8.06l-6.54,40.73,28.4,8L710,2473.56q10.32,2,20.78,3l4.2,40.83,29.52.41,4.77-41q10.71-.8,21.31-2.62l15,37.9,28.4-8-6.39-39.82q10-3.57,19.68-8.07l24.32,32.7L897,2473.73l-16.38-36.6q8.82-6.08,17-13l31.74,25.12L950,2428.15l-25.05-30.81q7-8.25,13.15-17.13L975,2396.15l14.4-25.77L957.1,2347q4.59-9.75,8.25-19.9l39.93,5.86,7.25-28.61-37.18-14.18q1.92-10.66,2.84-21.46l39.56-4.61-.41-29.51-39.19-4q-.9-10.8-2.84-21.47l37.11-14.73-8-28.4-39.16,6.29q-3.71-10.12-8.34-19.86l32.31-24L974.09,2103l-36.53,16.36q-6.15-8.77-13.1-16.92l25.2-31.85L928.51,2050l-31.15,25.32q-8.19-6.85-17-12.92L896.51,2025l-25.76-14.4-23.89,33q-9.57-4.41-19.53-7.92l6-41-28.61-7.25L790.06,2026q-10.32-1.79-20.77-2.63Zm-12.92,239.28A28.47,28.47,0,1,1,723.11,2250,28.47,28.47,0,0,1,751.58,2221.53Z" transform="translate(0 0)"/><path class="cls-4" d="M1465.36,2186.07l-3.91,25.69q-6.17.28-12.29,1.12l-8.36-24.5-17.54,3.79,2.88,26q-5.9,1.86-11.61,4.25L1400.2,2201l-16,8.2,9.48,24.28c-3.46,2.24-6.83,4.63-10.08,7.16l-19.38-16.94L1351,2235.77l15.35,20.88c-2.8,3.06-5.47,6.24-8,9.54l-22.91-11.25L1325.7,2270l20,16q-2.88,5.58-5.24,11.41l-24.77-4.88-5.5,17.08,23.34,10.23q-1.37,6.17-2.17,12.43l-25,1.69-.89,17.92,24.84,3.78q.26,6.38,1.09,12.71l-23.62,8.07,3.79,17.54,24.91-2.76c1.3,4.15,2.79,8.25,4.47,12.26l-20.4,14.08,8.64,15.73,22.71-9.22q3.48,5.45,7.47,10.56l-16,18.87,12.41,13,19.44-14.7q4.8,4.39,10,8.33l-10.55,22.23,15.35,9.31,14.83-19q5.84,3,11.94,5.46l-4.41,24,17.23,5,9.43-22.31q6.4,1.39,12.92,2.17l2,24.46,17.94.41,3.33-24q6.59-.32,13.1-1.24l8.13,22.8,3.66-.89v-96.14a39.72,39.72,0,0,1,0-37.66v-56.5a39.85,39.85,0,0,1-.12-77.7l.12,0v-32.3l-2.83,6.45q-6-1.29-12.16-2l-1.73-25.68Zm-65.2,78.24a39.91,39.91,0,1,1-7.9,1A39.87,39.87,0,0,1,1400.16,2264.31Zm67.77,68.19a17.27,17.27,0,1,1-3.43.43A17.3,17.3,0,0,1,1467.93,2332.5Zm-41.48,46a39.87,39.87,0,1,1-7.89,1A39.88,39.88,0,0,1,1426.45,2378.47Z" transform="translate(0 0)"/><path class="cls-4" d="M1043.3,1876.11a2.16,2.16,0,0,0-1.69,2.56l1.83,9.59a54.91,54.91,0,0,0-20.8,13.64l-8-5.47a2,2,0,0,0-1.62-.34,2.13,2.13,0,0,0-1.42.88l-8.1,12a2.16,2.16,0,0,0,.54,3l8.1,5.46a56,56,0,0,0-5.13,24.31l-9.46,1.82a2.2,2.2,0,0,0-1.75,2.57l2.7,14.24a2.25,2.25,0,0,0,2.57,1.76l9.58-1.82a55.2,55.2,0,0,0,13.64,20.72l-5.47,8a2.24,2.24,0,0,0,.54,3l12,8.17a2.19,2.19,0,0,0,3-.61l5.47-8a55,55,0,0,0,24.3,5.07l1.83,9.52a2.25,2.25,0,0,0,2.56,1.75l14.25-2.77a2.15,2.15,0,0,0,1.76-2.49l-1.83-9.59a55.32,55.32,0,0,0,20.73-13.64l8,5.47a2.19,2.19,0,0,0,3-.61l8.17-12a2.2,2.2,0,0,0-.61-3l-8-5.47a54.66,54.66,0,0,0,5.06-24.3l9.52-1.83a2.17,2.17,0,0,0,1.76-2.56l-2.77-14.25a2.1,2.1,0,0,0-2.5-1.69l-9.59,1.83a55,55,0,0,0-13.63-20.8l5.46-8a2.18,2.18,0,0,0-.6-3l-12-8.1a2,2,0,0,0-1.62-.34,2.28,2.28,0,0,0-1.42.88l-5.47,8.1a55.71,55.71,0,0,0-24.31-5.13l-1.82-9.45a2.12,2.12,0,0,0-2.56-1.76Zm14,34.23a30.93,30.93,0,1,1-24.58,36.19A30.92,30.92,0,0,1,1057.28,1910.34Z" transform="translate(0 0)"/><path class="cls-4" d="M110.67,1500a129.12,129.12,0,0,1-56.83,122.65A128.67,128.67,0,0,1,0,1643v15.52a147.05,147.05,0,0,0,25.41-5.36l3.93,11.63,6.08-2L31.5,1651a141.77,141.77,0,0,0,28.22-13.71l6.79,10.29L71.9,1644,65,1633.71a143.41,143.41,0,0,0,23.6-20.65l9.31,8.19,4.27-4.83L93,1608.3a144.42,144.42,0,0,0,17.57-26l11,5.47,2.87-5.81-11.13-5.54a142.28,142.28,0,0,0,10.15-29.61l12.18,2.46,1.26-6.3-12-2.46a146.18,146.18,0,0,0,2.1-31.29l12.32-.77-.41-6.44-12.32.77c-.09-.94-.22-1.87-.32-2.8Z" transform="translate(0 0)"/><path class="cls-4" d="M0,1500v30.73l83,65.11c.63-.77,1.26-1.54,1.82-2.31L1.54,1528.14c.56-.84,1-1.75,1.54-2.66L100.46,1567c.42-.85.77-1.75,1.2-2.66L4.2,1522.75c.35-1,.63-2,.91-3l104.8,15,.42-2.94L5.46,1516.88a17.54,17.54,0,0,0,.15-1.83,7.31,7.31,0,0,1-.08-1.32l105.22-12.68c0-.35-.09-.7-.14-1H94.74L5.18,1510.86a21.21,21.21,0,0,0-.84-3L23.87,1500H16l-12.73,5.11a17.16,17.16,0,0,0-1.53-2.73L4.93,1500Zm0,36v4.93l58.67,78.18c.77-.56,1.54-1.2,2.31-1.76Zm0,18.93v7.85l29.12,72.5,2.74-1.06Z" transform="translate(0 0)"/><path class="cls-4" d="M7.63,2190.81,0,2208.21v32.3a39.87,39.87,0,0,1,17.79,77.74,40,40,0,0,1-17.79,0v56.49a39.86,39.86,0,1,1,0,37.67v96.13l13.77-3.37-3-23.77q6.28-2,12.34-4.61l13.79,20,15.72-8.64-9.06-22.34q5.49-3.57,10.62-7.65L72.87,2474l13-12.41-14.68-19.41q4.35-4.85,8.24-10.07l22.31,10.59,9.3-15.35-19.25-15q2.94-5.79,5.34-11.84l24.36,4.47,5-17.23-22.83-9.65q1.31-6.27,2-12.64l25.11-2,.41-17.94L106.37,2342q-.34-6.36-1.27-12.66l23.67-8.46-4.26-17.44-24.83,3.1q-1.94-5.94-4.4-11.69l21-14-8.19-16-23.91,9.33c-2.29-3.49-4.75-6.88-7.35-10.15l16.75-19.17-12-13.29-20.85,15.32Q56,2242.78,51,2239l11.29-23-15.08-9.73L31.09,2226.5q-5.55-2.8-11.32-5.1l4.95-25.11Z" transform="translate(0 0)"/><path class="cls-4" d="M1475.85,2858.23l-6.44.42.77,12.33a148.15,148.15,0,0,0-30.73,5.94l-3.93-11.62-6.16,2,4,11.76a145.65,145.65,0,0,0-28.21,13.65l-6.79-10.21-5.39,3.56,6.86,10.29a143.88,143.88,0,0,0-23.6,20.58l-9.31-8.18-4.27,4.83,9.25,8.19a142.26,142.26,0,0,0-17.57,26l-11-5.46-2.87,5.81,11.13,5.46a144.29,144.29,0,0,0-10.15,29.68l-12.18-2.44-1.26,6.3,12,2.44c-.61,3.46-1,6.94-1.4,10.44h15.57A129,129,0,0,1,1500,2887.15v-15.67a147.15,147.15,0,0,0-23.38-.93Z" transform="translate(0 0)"/><path class="cls-4" d="M1468.43,2886.66c-1,.14-2,.35-3,.49l12.75,105.14c-1,.21-2,.49-3,.77l-39.49-98.21c-.91.28-1.82.63-2.73,1l39.48,98.35a13.1,13.1,0,0,0-2.73,1.55L1406.19,2911c-.77.63-1.54,1.19-2.31,1.82l63.49,84.7a21.25,21.25,0,0,0-2.17,2.18l-83.37-65.39a26.16,26.16,0,0,0-1.82,2.24l80.81,63.5H1478a14.15,14.15,0,0,1,8.79,0H1500a21.28,21.28,0,0,0-2.17-2.18l2.17-2.77v-4.83l-4.48,5.72c-.84-.56-1.75-1.05-2.66-1.54l7.14-16.75v-7.51l-9.87,23.14c-1-.35-2-.63-3-.91l12.88-90.11v-15l-.84-.11L1484.25,2992a17.24,17.24,0,0,0-1.82-.14c-.42,0-.91.07-1.33.07Zm-104,76.37c-.42.91-.77,1.83-1.19,2.74l80.24,34.23H1451Zm-9.44,32.35c-.15,1-.29,2-.43,2.87l12.25,1.75h20.51Z" transform="translate(0 0)"/><path class="cls-4" d="M1338.63,1500a146.6,146.6,0,0,0-.7,20.86l-12.32.77.42,6.44,12.32-.77a143.82,143.82,0,0,0,6,30.74l-11.62,3.92,2,6.16,11.69-4a149.89,149.89,0,0,0,13.72,28.22l-10.22,6.79,3.57,5.39,10.29-6.86a143.4,143.4,0,0,0,20.59,23.59l-8.19,9.31,4.82,4.27,8.2-9.24a142.31,142.31,0,0,0,26,17.58l-5.46,11,5.81,2.87,5.46-11.13a144.29,144.29,0,0,0,29.68,10.15l-2.45,12.18,6.31,1.26,2.44-12a146.28,146.28,0,0,0,31.3,2.1l.77,12.32,6.44-.41-.77-12.32c1.78-.16,3.55-.39,5.32-.6V1643a129.1,129.1,0,0,1-145.8-143Z" transform="translate(0 0)"/><path class="cls-4" d="M1366.77,1500l92.63,13.23a14,14,0,0,0-.15,1.82c0,.42.07.85.07,1.34l-105.22,12.67c.14,1,.28,2,.42,2.86l105.15-12.67a21.21,21.21,0,0,0,.84,3l-98.29,39.48,1,2.74,98.29-39.49a17.2,17.2,0,0,0,1.54,2.73l-84.71,63.57c.56.77,1.19,1.54,1.75,2.31l84.71-63.57a23.1,23.1,0,0,0,2.17,2.24l-65.39,83.38c.77.63,1.48,1.26,2.25,1.82l65.45-83.37a20.68,20.68,0,0,0,2.66,1.61l-41.58,97.37c.91.35,1.82.77,2.73,1.12l41.58-97.37a21.19,21.19,0,0,0,3,.83l-15,104.88c1,.14,2,.28,2.94.35l14.91-104.8a15.82,15.82,0,0,0,1.82.07h1.33l12.67,105.23,2.95-.43-12.75-105.15a21.21,21.21,0,0,0,3-.84l10.37,25.8v-7.85l-7.63-19a17.2,17.2,0,0,0,2.73-1.54l4.9,6.53V1536l-2.52-3.36c.77-.7,1.47-1.4,2.17-2.17l.35.28V1500h-13.18a15.75,15.75,0,1,1-8.8,0h-17.2l2.49,2c-.56.84-1,1.76-1.54,2.67L1451,1500h-7.52l17.22,7.34c-.35,1-.63,2-.91,3L1387.28,1500Z" transform="translate(0 0)"/><path class="cls-4" d="M10.36,2860.61l-2.45,12Q4,2872,0,2871.48v15.67a128.84,128.84,0,0,1,90,56.49A128.44,128.44,0,0,1,110.67,3000h15.52a147.25,147.25,0,0,0-5.64-27.94l11.63-3.91-2-6.16-11.77,4a142,142,0,0,0-13.72-28.21L115,2931l-3.58-5.39-10.29,6.86a144.23,144.23,0,0,0-20.65-23.59l8.19-9.32-4.83-4.27-8.12,9.25a144.48,144.48,0,0,0-26-17.58l5.47-11-5.82-2.87-5.53,11.13a142.28,142.28,0,0,0-29.61-10.15l2.46-12.18Z" transform="translate(0 0)"/><path class="cls-4" d="M0,2887.26v15l2.11-14.69Zm31.72,8.57L0,2970.14v7.51L34.38,2897C33.54,2896.59,32.63,2896.25,31.72,2895.83Zm29.19,16.8L0,2990.22v4.84l63.22-80.62C62.45,2913.81,61.68,2913.19,60.91,2912.63Zm23.8,23.87L0,3000H4.92l81.54-61.19C85.9,2938,85.27,2937.27,84.71,2936.5Zm16.87,29.13L16,3000h7.85l78.78-31.65Zm8.75,32.48L94.73,3000h15.88C110.52,2999.37,110.42,2998.74,110.33,2998.11Z" transform="translate(0 0)"/></g></svg>