<svg id="GD001" height="512" viewBox="0 0 512 512" width="512" xmlns="http://www.w3.org/2000/svg" xmlns:xlink="http://www.w3.org/1999/xlink"><linearGradient id="New_Gradient_Swatch_2" gradientUnits="userSpaceOnUse" x1="332.413" x2="332.413" y1="58.674" y2="444.109"><stop offset="0" stop-color="#fc5c7d"/><stop offset=".129" stop-color="#f35e85"/><stop offset=".343" stop-color="#d9659b"/><stop offset=".616" stop-color="#b070bf"/><stop offset=".934" stop-color="#777ff0"/><stop offset="1" stop-color="#6a82fb"/></linearGradient><linearGradient id="New_Gradient_Swatch_2-2" x1="256" x2="256" xlink:href="#New_Gradient_Swatch_2" y1="58.674" y2="444.109"/><linearGradient id="New_Gradient_Swatch_2-4" x1="342.431" x2="342.431" xlink:href="#New_Gradient_Swatch_2" y1="58.674" y2="444.109"/><linearGradient id="New_Gradient_Swatch_2-5" x1="268.894" x2="268.894" xlink:href="#New_Gradient_Swatch_2" y1="58.674" y2="444.109"/><linearGradient id="New_Gradient_Swatch_2-7" x1="416" x2="416" xlink:href="#New_Gradient_Swatch_2" y1="58.674" y2="444.109"/><linearGradient id="New_Gradient_Swatch_2-9" x1="88" x2="88" xlink:href="#New_Gradient_Swatch_2" y1="58.674" y2="444.109"/><linearGradient id="New_Gradient_Swatch_2-11" x1="136" x2="136" xlink:href="#New_Gradient_Swatch_2" y1="58.674" y2="444.109"/><linearGradient id="New_Gradient_Swatch_2-12" x1="304" x2="304" xlink:href="#New_Gradient_Swatch_2" y1="58.674" y2="444.109"/><linearGradient id="New_Gradient_Swatch_2-13" x1="328" x2="328" xlink:href="#New_Gradient_Swatch_2" y1="58.674" y2="444.109"/><linearGradient id="New_Gradient_Swatch_2-14" x1="392" x2="392" xlink:href="#New_Gradient_Swatch_2" y1="58.674" y2="444.109"/><path d="m309.941 175.679a191.1 191.1 0 0 1 37.326 15.356l7.617-14.07a207.056 207.056 0 0 0 -40.456-16.644z" fill="url(#New_Gradient_Swatch_2)"/><path d="m440.321 306.059a191.019 191.019 0 0 1 6.2 30l-22.27 7.426-37.279-14.912a8 8 0 0 0 -9.831 3.312l-22.614 37.689-37.5 15a8 8 0 0 0 -3.427 2.626l-19.994 26.659-20.563-10.282 14.8-74.008a8.014 8.014 0 0 0 -.035-3.3l-16-72a8 8 0 0 0 -7.808-6.269h-51.056l-32.319-64.639a190.837 190.837 0 0 1 21.435-7.682l-4.487-15.359a206.664 206.664 0 0 0 -66.373 33.269l9.61 12.793a192.083 192.083 0 0 1 25.376-16.132l34.664 69.328a8 8 0 0 0 7.15 4.422h49.583l14.241 64.087-15.669 78.344a8 8 0 0 0 4.267 8.724l32 16a8 8 0 0 0 9.978-2.355l22.654-30.2 37.917-15.167a8 8 0 0 0 3.889-3.312l20.494-34.158 33.675 13.47a8 8 0 0 0 5.5.161l21.32-7.109q.145 3.753.15 7.52a191.723 191.723 0 0 1 -3.441 36.127l-77.776 11.966a8 8 0 0 0 -6.373 5.377l-16 48a8 8 0 0 0 -.056 4.881l4.2 13.649h-242.441q-5.9-7.37-11.022-15.261l75.44-25.15a8 8 0 0 0 4.33-3.473l24-40a8 8 0 0 0 -.613-9.114l-29.006-36.256 22.113-51.595a8 8 0 0 0 -2.8-9.729l-23.112-16-9.107 13.156 17.737 12.279-21.426 49.992a8 8 0 0 0 1.107 8.146l28.525 35.656-19.616 32.693-75.9 25.3a192.366 192.366 0 0 1 -22.762-90.649c0-5.121.2-10.292.605-15.369l-15.949-1.262c-.435 5.495-.656 11.09-.656 16.631a208.234 208.234 0 0 0 48.175 133.124 8 8 0 0 0 6.144 2.876h307.363a8 8 0 0 0 6.144-2.877 208.381 208.381 0 0 0 39.853-191.551zm-34.432 173.941h-40.6l-4.89-15.9 13.645-40.935 66.494-10.231a191.957 191.957 0 0 1 -34.649 67.066z" fill="url(#New_Gradient_Swatch_2-2)"/><path d="m256 80a32 32 0 1 0 32 32 32.036 32.036 0 0 0 -32-32zm0 48a16 16 0 1 1 16-16 16.019 16.019 0 0 1 -16 16z" fill="url(#New_Gradient_Swatch_2-2)"/><path d="m333.228 134.062 15.523 3.876a109.319 109.319 0 0 0 2.884-17.268l-15.944-1.34a93.363 93.363 0 0 1 -2.463 14.732z" fill="url(#New_Gradient_Swatch_2-4)"/><path d="m256 32a80.121 80.121 0 0 1 79.672 72.721l15.935-1.442a95.961 95.961 0 0 0 -165.426-57.108l11.638 10.98a79.255 79.255 0 0 1 58.181-25.151z" fill="url(#New_Gradient_Swatch_2-5)"/><path d="m256 48a64.072 64.072 0 0 0 -64 64c0 51.524 56.927 92.779 59.35 94.51a8 8 0 0 0 9.3 0c2.423-1.731 59.35-42.986 59.35-94.51a64.072 64.072 0 0 0 -64-64zm0 141.867c-12.876-10.489-48-42.36-48-77.867a48 48 0 0 1 96 0c0 35.51-35.129 67.383-48 77.867z" fill="url(#New_Gradient_Swatch_2-2)"/><path d="m416 248a32 32 0 1 0 -32-32 32.036 32.036 0 0 0 32 32zm0-48a16 16 0 1 1 -16 16 16.019 16.019 0 0 1 16-16z" fill="url(#New_Gradient_Swatch_2-7)"/><path d="m411.35 310.51a8 8 0 0 0 9.3 0c2.423-1.731 59.35-42.986 59.35-94.51a64 64 0 0 0 -128 0c0 51.524 56.927 92.779 59.35 94.51zm4.65-142.51a48.054 48.054 0 0 1 48 48c0 35.51-35.129 67.383-48 77.867-12.876-10.489-48-42.36-48-77.867a48.054 48.054 0 0 1 48-48z" fill="url(#New_Gradient_Swatch_2-7)"/><path d="m120 256a32 32 0 1 0 -32 32 32.036 32.036 0 0 0 32-32zm-48 0a16 16 0 1 1 16 16 16.019 16.019 0 0 1 -16-16z" fill="url(#New_Gradient_Swatch_2-9)"/><path d="m83.35 350.51a8 8 0 0 0 9.3 0c2.423-1.731 59.35-42.986 59.35-94.51a64 64 0 0 0 -128 0c0 51.524 56.927 92.779 59.35 94.51zm4.65-142.51a48.054 48.054 0 0 1 48 48c0 35.51-35.129 67.383-48 77.867-12.876-10.489-48-42.36-48-77.867a48.054 48.054 0 0 1 48-48z" fill="url(#New_Gradient_Swatch_2-9)"/><path d="m128 392h16v16h-16z" fill="url(#New_Gradient_Swatch_2-11)"/><path d="m296 248h16v16h-16z" fill="url(#New_Gradient_Swatch_2-12)"/><path d="m320 344h16v16h-16z" fill="url(#New_Gradient_Swatch_2-13)"/><path d="m384 440h16v16h-16z" fill="url(#New_Gradient_Swatch_2-14)"/></svg>