<svg id="GD001" height="512" viewBox="0 0 512 512" width="512" xmlns="http://www.w3.org/2000/svg" xmlns:xlink="http://www.w3.org/1999/xlink"><linearGradient id="New_Gradient_Swatch_2" gradientUnits="userSpaceOnUse" x1="73.418" x2="73.418" y1="34.116" y2="450.746"><stop offset="0" stop-color="#fc5c7d"/><stop offset=".129" stop-color="#f35e85"/><stop offset=".343" stop-color="#d9659b"/><stop offset=".616" stop-color="#b070bf"/><stop offset=".934" stop-color="#777ff0"/><stop offset="1" stop-color="#6a82fb"/></linearGradient><linearGradient id="New_Gradient_Swatch_2-2" x1="64" x2="64" xlink:href="#New_Gradient_Swatch_2" y1="34.116" y2="450.746"/><linearGradient id="New_Gradient_Swatch_2-3" x1="288" x2="288" xlink:href="#New_Gradient_Swatch_2" y1="34.116" y2="450.746"/><linearGradient id="New_Gradient_Swatch_2-4" x1="224" x2="224" xlink:href="#New_Gradient_Swatch_2" y1="34.116" y2="450.746"/><linearGradient id="New_Gradient_Swatch_2-5" x1="248" x2="248" xlink:href="#New_Gradient_Swatch_2" y1="34.116" y2="450.746"/><linearGradient id="New_Gradient_Swatch_2-6" x1="277.402" x2="277.402" xlink:href="#New_Gradient_Swatch_2" y1="34.116" y2="450.746"/><linearGradient id="New_Gradient_Swatch_2-7" x1="120" x2="120" xlink:href="#New_Gradient_Swatch_2" y1="34.116" y2="450.746"/><linearGradient id="New_Gradient_Swatch_2-8" x1="368" x2="368" xlink:href="#New_Gradient_Swatch_2" y1="34.116" y2="450.746"/><linearGradient id="New_Gradient_Swatch_2-10" x1="304" x2="304" xlink:href="#New_Gradient_Swatch_2" y1="34.116" y2="450.746"/><path d="m77.731 283.409a119.036 119.036 0 0 0 -21.731 68.591v72h16v-72a103.115 103.115 0 0 1 18.836-59.412z" fill="url(#New_Gradient_Swatch_2)"/><path d="m56 440h16v16h-16z" fill="url(#New_Gradient_Swatch_2-2)"/><path d="m256 216h8a16.019 16.019 0 0 0 16-16v-32h40a8 8 0 0 0 0-16h-40a16.019 16.019 0 0 0 -16 16v32h-8a8 8 0 0 0 0 16z" fill="url(#New_Gradient_Swatch_2-3)"/><path d="m240 168a8 8 0 0 0 0-16h-32a8 8 0 0 0 0 16z" fill="url(#New_Gradient_Swatch_2-4)"/><path d="m256 248h-16a8 8 0 0 0 0 16h16a8 8 0 0 0 0-16z" fill="url(#New_Gradient_Swatch_2-5)"/><path d="m469.948 377.547a23.8 23.8 0 0 0 -19.16-9.547h-158.719a24.1 24.1 0 0 0 -23.077 17.407l-8.741 30.593h-35.411l6.4-64h17.52l2.48 24.8 15.921-1.592-3.03-30.3 3.365-10.1 6.847 6.847a8 8 0 0 0 13.086-2.688l19.948-49.909a96.444 96.444 0 0 0 10.431-7.667 72.261 72.261 0 0 1 58.192 70.609h16a88.412 88.412 0 0 0 -61.3-83.779 95.625 95.625 0 0 0 19.959-44.221h9.341a24.027 24.027 0 0 0 24-24v-48a24.027 24.027 0 0 0 -24-24h-8v-39.12a72.963 72.963 0 0 0 -72.88-72.88h-110.24a72.963 72.963 0 0 0 -72.88 72.88v40.5a24.038 24.038 0 0 0 -16 22.62v48a24.027 24.027 0 0 0 24 24h8v32a8 8 0 0 0 8 8h26.041q1.551 2.156 3.219 4.232a88.413 88.413 0 0 0 -61.26 83.768v101.68a42.367 42.367 0 0 0 42.32 42.32h309.68a8 8 0 0 0 7.692-5.8l26.173-91.6a23.8 23.8 0 0 0 -3.917-21.053zm-267.026-55.783-9.042-22.6a95.986 95.986 0 0 0 26.882 4.765zm47.312 14.236h-20.468l-4.613-13.839 14.847-14.848 14.847 14.848zm26.842-14.238-17.823-17.823a95.469 95.469 0 0 0 26.857-4.781zm82.924-177.762a8.009 8.009 0 0 1 8 8v48a8.009 8.009 0 0 1 -8 8h-8v-64zm-80.88-112a56.944 56.944 0 0 1 56.88 56.88v31.12h-8a40.031 40.031 0 0 1 -40-40 8 8 0 0 0 -16 0 40.073 40.073 0 0 1 -40 40v-24a8 8 0 0 0 -16 0 23.958 23.958 0 0 1 -24 24h-48v-31.12a56.944 56.944 0 0 1 56.88-56.88zm-126.58 2.4a72.712 72.712 0 0 0 -24.54 54.48v39.12h-16v-39.12a56.974 56.974 0 0 1 40.54-54.48zm-56.54 165.6v-48a8.009 8.009 0 0 1 8-8h32a8.009 8.009 0 0 1 8 8v48a8.009 8.009 0 0 1 -8 8h-32a8.009 8.009 0 0 1 -8-8zm32 48v-24h1.353a95.463 95.463 0 0 0 7.375 24zm26.72 0a79.5 79.5 0 0 1 -9.464-25.858 24.037 24.037 0 0 0 14.744-22.142v-48a23.9 23.9 0 0 0 -6.131-16h38.131a39.888 39.888 0 0 0 24-8 8 8 0 0 0 8 8h8a56.493 56.493 0 0 0 48.018-27.132 56.114 56.114 0 0 0 47.982 27.132h8v72a80.091 80.091 0 0 1 -80 80h-32a79.767 79.767 0 0 1 -54.107-21.072c-1.035-.95-2.034-1.931-3.012-2.928h41.119v-16zm-50.72 205.68v-101.68a72.262 72.262 0 0 1 58.14-70.6 96.177 96.177 0 0 0 10.479 7.685l19.953 49.882a8 8 0 0 0 13.085 2.686l6.847-6.847 3.365 10.1-7.109 71.094h-48.76v-56h-16v64a8 8 0 0 0 8 8h103.68l-4.572 16h-83.108a23.992 23.992 0 0 0 -22.624 32h-15.056a26.35 26.35 0 0 1 -26.32-26.32zm56 18.32a8.009 8.009 0 0 1 8-8h78.537l-4.572 16h-73.965a8.009 8.009 0 0 1 -8-8zm298.48-77.8-24.515 85.8h-175.359l25.771-90.2a8.034 8.034 0 0 1 7.692-5.8h158.719a8 8 0 0 1 7.692 10.2z" fill="url(#New_Gradient_Swatch_2-6)"/><path d="m112 160h16v32h-16z" fill="url(#New_Gradient_Swatch_2-7)"/><path d="m360 424h16v16h-16z" fill="url(#New_Gradient_Swatch_2-8)"/><circle cx="224" cy="184" fill="url(#New_Gradient_Swatch_2-4)" r="8"/><circle cx="304" cy="184" fill="url(#New_Gradient_Swatch_2-10)" r="8"/></svg>