<svg height="512" viewBox="0 0 512 512" width="512" xmlns="http://www.w3.org/2000/svg" xmlns:xlink="http://www.w3.org/1999/xlink"><linearGradient id="New_Gradient_Swatch_2" gradientUnits="userSpaceOnUse" x1="256" x2="256" y1="27.985" y2="397.527"><stop offset="0" stop-color="#fc5c7d"/><stop offset=".129" stop-color="#f35e85"/><stop offset=".343" stop-color="#d9659b"/><stop offset=".616" stop-color="#b070bf"/><stop offset=".934" stop-color="#777ff0"/><stop offset="1" stop-color="#6a82fb"/></linearGradient><linearGradient id="New_Gradient_Swatch_2-3" gradientTransform="matrix(.866 .5 -.5 .866 78.297 -92.631)" x1="212" x2="212" xlink:href="#New_Gradient_Swatch_2" y1="27.985" y2="397.527"/><linearGradient id="New_Gradient_Swatch_2-4" gradientTransform="matrix(.5 .866 -.866 .5 204.21 -89.702)" x1="179.79" x2="179.79" xlink:href="#New_Gradient_Swatch_2" y1="27.985" y2="397.527"/><linearGradient id="New_Gradient_Swatch_2-5" x1="168" x2="168" xlink:href="#New_Gradient_Swatch_2" y1="27.985" y2="397.527"/><linearGradient id="New_Gradient_Swatch_2-6" gradientTransform="matrix(.866 .5 -.5 .866 134.087 -60.42)" x1="179.79" x2="179.79" xlink:href="#New_Gradient_Swatch_2" y1="27.985" y2="397.527"/><linearGradient id="New_Gradient_Swatch_2-7" gradientTransform="matrix(.5 .866 -.866 .5 324.421 -57.492)" x1="212" x2="212" xlink:href="#New_Gradient_Swatch_2" y1="27.985" y2="397.527"/><linearGradient id="New_Gradient_Swatch_2-9" gradientTransform="matrix(.866 .5 -.5 .866 166.297 -116.21)" x1="300" x2="300" xlink:href="#New_Gradient_Swatch_2" y1="27.985" y2="397.527"/><linearGradient id="New_Gradient_Swatch_2-10" gradientTransform="matrix(.5 .866 -.866 .5 356.631 -177.703)" x1="332.21" x2="332.21" xlink:href="#New_Gradient_Swatch_2" y1="27.985" y2="397.527"/><linearGradient id="New_Gradient_Swatch_2-11" x1="344" x2="344" xlink:href="#New_Gradient_Swatch_2" y1="27.985" y2="397.527"/><linearGradient id="New_Gradient_Swatch_2-12" gradientTransform="matrix(.866 .5 -.5 .866 110.507 -148.42)" x1="332.21" x2="332.21" xlink:href="#New_Gradient_Swatch_2" y1="27.985" y2="397.527"/><linearGradient id="New_Gradient_Swatch_2-13" gradientTransform="matrix(.5 .866 -.866 .5 236.421 -209.913)" x1="300" x2="300" xlink:href="#New_Gradient_Swatch_2" y1="27.985" y2="397.527"/><linearGradient id="New_Gradient_Swatch_2-14" x1="284" x2="284" xlink:href="#New_Gradient_Swatch_2" y1="27.985" y2="397.527"/><linearGradient id="New_Gradient_Swatch_2-16" x1="152" x2="152" xlink:href="#New_Gradient_Swatch_2" y1="27.985" y2="397.527"/><linearGradient id="New_Gradient_Swatch_2-17" x1="360" x2="360" xlink:href="#New_Gradient_Swatch_2" y1="27.985" y2="397.527"/><linearGradient id="New_Gradient_Swatch_2-18" gradientTransform="matrix(.956 .294 -.294 .956 140.235 -89.58)" x1="368" x2="368" xlink:href="#New_Gradient_Swatch_2" y1="27.985" y2="397.527"/><linearGradient id="New_Gradient_Swatch_2-19" gradientTransform="matrix(.956 .294 -.294 .956 138.755 -99.426)" x1="400" x2="400" xlink:href="#New_Gradient_Swatch_2" y1="27.985" y2="397.527"/><linearGradient id="New_Gradient_Swatch_2-20" gradientTransform="matrix(.956 .294 -.294 .956 137.274 -109.271)" x1="432" x2="432" xlink:href="#New_Gradient_Swatch_2" y1="27.985" y2="397.527"/><linearGradient id="New_Gradient_Swatch_2-21" gradientTransform="matrix(.294 .956 -.956 .294 520.557 148.13)" x1="160" x2="160" xlink:href="#New_Gradient_Swatch_2" y1="27.985" y2="397.527"/><linearGradient id="New_Gradient_Swatch_2-22" gradientTransform="matrix(.294 .956 -.956 .294 552.558 124.496)" x1="192" x2="192" xlink:href="#New_Gradient_Swatch_2" y1="27.985" y2="397.527"/><linearGradient id="New_Gradient_Swatch_2-23" gradientTransform="matrix(.294 .956 -.956 .294 584.554 100.856)" x1="224" x2="224" xlink:href="#New_Gradient_Swatch_2" y1="27.985" y2="397.527"/><g id="GD001"><path d="m128 176a128 128 0 1 0 198.78-106.595l8.148-14.113 13.857 8 8-13.856-41.57-24-8 13.856 13.857 8-8.136 14.092a127.8 127.8 0 0 0 -113.872 0l-8.136-14.092 13.857-8-8-13.856-41.57 24 8 13.856 13.857-8 8.148 14.113a127.98 127.98 0 0 0 -57.22 106.595zm240 0a112 112 0 1 1 -112-112 112.127 112.127 0 0 1 112 112z" fill="url(#New_Gradient_Swatch_2)"/><path d="m248 80h16v16h-16z" fill="url(#New_Gradient_Swatch_2)"/><path d="m204 91.79h16v16h-16z" fill="url(#New_Gradient_Swatch_2-3)" transform="matrix(.866 -.5 .5 .866 -21.492 119.369)"/><path d="m171.79 124h16v16h-16z" fill="url(#New_Gradient_Swatch_2-4)" transform="matrix(.5 -.866 .866 .5 -24.42 221.703)"/><path d="m160 168h16v16h-16z" fill="url(#New_Gradient_Swatch_2-5)"/><path d="m171.79 212h16v16h-16z" fill="url(#New_Gradient_Swatch_2-6)" transform="matrix(.866 -.5 .5 .866 -85.913 119.369)"/><path d="m204 244.21h16v16h-16z" fill="url(#New_Gradient_Swatch_2-7)" transform="matrix(.5 -.866 .866 .5 -112.421 309.703)"/><path d="m248 256h16v16h-16z" fill="url(#New_Gradient_Swatch_2)"/><path d="m292 244.21h16v16h-16z" fill="url(#New_Gradient_Swatch_2-9)" transform="matrix(.866 -.5 .5 .866 -85.913 183.789)"/><path d="m324.21 212h16v16h-16z" fill="url(#New_Gradient_Swatch_2-10)" transform="matrix(.5 -.866 .866 .5 -24.42 397.703)"/><path d="m336 168h16v16h-16z" fill="url(#New_Gradient_Swatch_2-11)"/><path d="m324.21 124h16v16h-16z" fill="url(#New_Gradient_Swatch_2-12)" transform="matrix(.866 -.5 .5 .866 -21.492 183.789)"/><path d="m292 91.79h16v16h-16z" fill="url(#New_Gradient_Swatch_2-13)" transform="matrix(.5 -.866 .866 .5 63.58 309.703)"/><path d="m256 184h64v-16h-56v-56h-16v64a8 8 0 0 0 8 8z" fill="url(#New_Gradient_Swatch_2-14)"/><path d="m466.353 200.354-64-19.692-4.706 15.293 39.153 12.045-47.149 14.507 4.706 15.292 61.643-18.968v199.26l-192 59.077v-157.168h-16v157.168l-192-59.077v-199.26l61.647 18.969 4.706-15.292-47.153-14.508 39.149-12.045-4.706-15.293-64 19.692a8 8 0 0 0 -5.643 7.646v216a8 8 0 0 0 5.647 7.646l208 64a8 8 0 0 0 4.706 0l208-64a8 8 0 0 0 5.647-7.646v-216a8 8 0 0 0 -5.647-7.646z" fill="url(#New_Gradient_Swatch_2)"/><path d="m208 361.231a8 8 0 0 0 8-8v-40a8 8 0 0 0 -5.647-7.646l-112-34.462a8 8 0 0 0 -10.353 7.646v40a8 8 0 0 0 5.647 7.646l112 34.462a7.978 7.978 0 0 0 2.353.354zm-8-18.831-96-29.54v-23.26l96 29.539z" fill="url(#New_Gradient_Swatch_2-16)"/><path d="m420.753 272.334a8 8 0 0 0 -7.106-1.211l-112 34.462a8 8 0 0 0 -5.647 7.646v40a8 8 0 0 0 10.353 7.646l112-34.462a8 8 0 0 0 5.647-7.646v-40a8 8 0 0 0 -3.247-6.435zm-12.753 40.526-96 29.54v-23.26l96-29.54z" fill="url(#New_Gradient_Swatch_2-17)"/><path d="m359.63 413.538h16.74v16h-16.74z" fill="url(#New_Gradient_Swatch_2-18)" transform="matrix(.956 -.294 .294 .956 -107.691 126.858)"/><path d="m391.63 403.692h16.74v16h-16.74z" fill="url(#New_Gradient_Swatch_2-19)" transform="matrix(.956 -.294 .294 .956 -103.381 135.833)"/><path d="m423.63 393.846h16.74v16h-16.74z" fill="url(#New_Gradient_Swatch_2-20)" transform="matrix(.956 -.294 .294 .956 -99.071 144.808)"/><path d="m152 418.091h16v16.74h-16z" fill="url(#New_Gradient_Swatch_2-21)" transform="matrix(.294 -.956 .956 .294 -294.656 453.982)"/><path d="m184 427.938h16v16.74h-16z" fill="url(#New_Gradient_Swatch_2-22)" transform="matrix(.294 -.956 .956 .294 -281.477 491.518)"/><path d="m216 437.784h16v16.74h-16z" fill="url(#New_Gradient_Swatch_2-23)" transform="matrix(.294 -.956 .956 .294 -268.299 529.047)"/></g></svg>