<svg id="GD001" height="512" viewBox="0 0 512 512" width="512" xmlns="http://www.w3.org/2000/svg" xmlns:xlink="http://www.w3.org/1999/xlink"><linearGradient id="New_Gradient_Swatch_2" gradientUnits="userSpaceOnUse" x1="155.606" x2="160.65" y1="84.172" y2="391.854"><stop offset="0" stop-color="#fc5c7d"/><stop offset=".129" stop-color="#f35e85"/><stop offset=".343" stop-color="#d9659b"/><stop offset=".616" stop-color="#b070bf"/><stop offset=".934" stop-color="#777ff0"/><stop offset="1" stop-color="#6a82fb"/></linearGradient><linearGradient id="New_Gradient_Swatch_2-2" x1="155.61" x2="160.654" xlink:href="#New_Gradient_Swatch_2" y1="84.172" y2="391.854"/><linearGradient id="New_Gradient_Swatch_2-3" x1="98.969" x2="104.013" xlink:href="#New_Gradient_Swatch_2" y1="85.1" y2="392.783"/><linearGradient id="New_Gradient_Swatch_2-4" x1="146.432" x2="151.475" xlink:href="#New_Gradient_Swatch_2" y1="84.322" y2="392.005"/><linearGradient id="New_Gradient_Swatch_2-5" x1="171.212" x2="176.256" xlink:href="#New_Gradient_Swatch_2" y1="83.916" y2="391.598"/><linearGradient id="New_Gradient_Swatch_2-6" x1="202.81" x2="207.854" xlink:href="#New_Gradient_Swatch_2" y1="83.398" y2="391.08"/><linearGradient id="New_Gradient_Swatch_2-7" x1="255.061" x2="260.105" xlink:href="#New_Gradient_Swatch_2" y1="82.541" y2="390.224"/><linearGradient id="New_Gradient_Swatch_2-8" x1="376.73" x2="381.774" xlink:href="#New_Gradient_Swatch_2" y1="80.547" y2="388.229"/><linearGradient id="New_Gradient_Swatch_2-9" x1="376.206" x2="381.25" xlink:href="#New_Gradient_Swatch_2" y1="80.555" y2="388.238"/><linearGradient id="New_Gradient_Swatch_2-10" x1="367.684" x2="372.728" xlink:href="#New_Gradient_Swatch_2" y1="80.695" y2="388.378"/><linearGradient id="New_Gradient_Swatch_2-11" x1="405.247" x2="410.291" xlink:href="#New_Gradient_Swatch_2" y1="80.079" y2="387.762"/><linearGradient id="New_Gradient_Swatch_2-12" x1="357.26" x2="362.304" xlink:href="#New_Gradient_Swatch_2" y1="80.866" y2="388.548"/><linearGradient id="New_Gradient_Swatch_2-13" x1="334.708" x2="339.752" xlink:href="#New_Gradient_Swatch_2" y1="81.236" y2="388.918"/><linearGradient id="New_Gradient_Swatch_2-14" x1="369.978" x2="375.022" xlink:href="#New_Gradient_Swatch_2" y1="80.657" y2="388.34"/><linearGradient id="New_Gradient_Swatch_2-15" x1="147.677" x2="152.721" xlink:href="#New_Gradient_Swatch_2" y1="84.302" y2="391.984"/><linearGradient id="New_Gradient_Swatch_2-16" x1="207.53" x2="212.574" xlink:href="#New_Gradient_Swatch_2" y1="83.321" y2="391.003"/><linearGradient id="New_Gradient_Swatch_2-17" x1="240.046" x2="245.09" xlink:href="#New_Gradient_Swatch_2" y1="82.787" y2="390.47"/><linearGradient id="New_Gradient_Swatch_2-18" x1="98.026" x2="103.07" xlink:href="#New_Gradient_Swatch_2" y1="85.116" y2="392.798"/><linearGradient id="New_Gradient_Swatch_2-19" x1="60.387" x2="65.431" xlink:href="#New_Gradient_Swatch_2" y1="85.733" y2="393.415"/><path d="m271.638 344.407-.044-.6a8 8 0 0 0 -13.636-5.077l-6.106 6.106a28.109 28.109 0 0 1 -39.7 0l-4.982-4.984a44.126 44.126 0 0 0 -62.332 0l-4.982 4.982a28.108 28.108 0 0 1 -39.7 0 44.191 44.191 0 0 0 -46.424-10.1 8 8 0 0 0 -5.2 6.765c-.36 3.814-.532 7.248-.532 10.501a112 112 0 0 0 224 0c0-2.657-.184-5.166-.362-7.593zm-111.638 103.593a96.108 96.108 0 0 1 -96-96c0-1.147.026-2.329.079-3.557a28.092 28.092 0 0 1 24.755 7.705 44.124 44.124 0 0 0 62.332 0l4.982-4.982a28.109 28.109 0 0 1 39.7 0l4.982 4.984a44.154 44.154 0 0 0 54.617 6.159 96.143 96.143 0 0 1 -95.447 85.691z" fill="url(#New_Gradient_Swatch_2)"/><path d="m304 352a142.449 142.449 0 0 0 -31.371-89.727 144.865 144.865 0 0 0 -72.629-48.629v-23.02a24 24 0 0 0 -8-46.624h-64a24 24 0 0 0 -8 46.624v23.02a144.865 144.865 0 0 0 -72.629 48.629 142.449 142.449 0 0 0 -31.371 89.727c0 79.4 64.6 144 144 144s144-64.6 144-144zm-176-192h64a8 8 0 0 1 0 16h-64a8 8 0 0 1 0-16zm32 320a128.145 128.145 0 0 1 -128-128 126.6 126.6 0 0 1 27.878-79.748 128.616 128.616 0 0 1 70-44.678 8 8 0 0 0 6.122-7.774v-27.8h48v27.8a8 8 0 0 0 6.124 7.777 128.616 128.616 0 0 1 70 44.678 126.6 126.6 0 0 1 27.876 79.745 128.145 128.145 0 0 1 -128 128z" fill="url(#New_Gradient_Swatch_2-2)"/><path d="m96 384h16v16h-16z" fill="url(#New_Gradient_Swatch_2-3)"/><path d="m144 416h16v16h-16z" fill="url(#New_Gradient_Swatch_2-4)"/><path d="m168 368h16v16h-16z" fill="url(#New_Gradient_Swatch_2-5)"/><path d="m200 392h16v16h-16z" fill="url(#New_Gradient_Swatch_2-6)"/><path d="m432 16h-352a40.045 40.045 0 0 0 -40 40v168h16v-168a24.028 24.028 0 0 1 24-24h352a24.028 24.028 0 0 1 24 24v400a24.028 24.028 0 0 1 -24 24h-176v16h176a40.045 40.045 0 0 0 40-40v-400a40.045 40.045 0 0 0 -40-40z" fill="url(#New_Gradient_Swatch_2-7)"/><path d="m328 272h104v16h-104z" fill="url(#New_Gradient_Swatch_2-8)"/><path d="m328 304h104v16h-104z" fill="url(#New_Gradient_Swatch_2-9)"/><path d="m328 336h88v16h-88z" fill="url(#New_Gradient_Swatch_2-10)"/><path d="m384 240h48v16h-48z" fill="url(#New_Gradient_Swatch_2-11)"/><path d="m352 240h16v16h-16z" fill="url(#New_Gradient_Swatch_2-12)"/><path d="m272 112v19.056l-27.578 13.789a8 8 0 0 0 -4.422 7.155v40a8 8 0 0 0 4.422 7.155l27.578 13.789v19.056h16v-19.056l24-12 28.422 14.211a8 8 0 0 0 7.156 0l30.31-15.155h22.112v-16h-16v-27.056l25.888-12.944h22.112v-16h-16v-32a8 8 0 0 0 -4.422-7.155l-27.578-13.789v-19.056h-16v19.056l-25.888 12.944h-22.112v16h16v27.056l-24 12-24-12v-19.056zm96 75.056-24 12-24-12v-30.112l24-12 24 12zm-16-86.112 24-12 24 12v30.112l-24 12-24-12zm-48 86.112-24 12-24-12v-30.112l24-12 24 12z" fill="url(#New_Gradient_Swatch_2-13)"/><path d="m320 456h112v-16h-16v-40h-16v40h-16v-56h-16v56h-16v-24h-16v24h-16z" fill="url(#New_Gradient_Swatch_2-14)"/><path d="m80 56v80h16v-16h88v-16h-88v-16h120v-16h-120v-16z" fill="url(#New_Gradient_Swatch_2-15)"/><path d="m200 104h16v16h-16z" fill="url(#New_Gradient_Swatch_2-16)"/><path d="m232 72h16v16h-16z" fill="url(#New_Gradient_Swatch_2-17)"/><path d="m130.459 260.628-4.918-15.228a111.686 111.686 0 0 0 -53.825 37.67l12.605 9.854a95.749 95.749 0 0 1 46.138-32.296z" fill="url(#New_Gradient_Swatch_2-18)"/><path d="m74.81 307.7-14.189-7.4a111.692 111.692 0 0 0 -7.221 17.241l15.226 4.918a95.539 95.539 0 0 1 6.184-14.759z" fill="url(#New_Gradient_Swatch_2-19)"/></svg>